<mxfile host="Electron" modified="2024-04-11T06:39:23.442Z" agent="Mozilla/5.0 (Windows NT 10.0; Win64; x64) AppleWebKit/537.36 (KHTML, like Gecko) draw.io/21.8.2 Chrome/114.0.5735.289 Electron/25.8.1 Safari/537.36" etag="7B0WhJQGe7xp1RRqqhJv" version="21.8.2" type="device">
  <diagram id="R2lEEEUBdFMjLlhIrx00" name="Page-1">
    <mxGraphModel dx="3240" dy="2523" grid="1" gridSize="10" guides="1" tooltips="1" connect="1" arrows="1" fold="1" page="1" pageScale="1" pageWidth="850" pageHeight="1100" math="0" shadow="0" extFonts="Permanent Marker^https://fonts.googleapis.com/css?family=Permanent+Marker">
      <root>
        <mxCell id="0" />
        <mxCell id="1" parent="0" />
        <mxCell id="W1w_GPU8LvK_WI4qFMCy-1" value="" style="rounded=0;whiteSpace=wrap;html=1;fillColor=#D2D2D2;movable=1;resizable=1;rotatable=1;deletable=1;editable=1;locked=0;connectable=1;strokeColor=#FF4C2B;strokeWidth=2;" parent="1" vertex="1">
          <mxGeometry x="-470" y="-480" width="1170" height="1210" as="geometry" />
        </mxCell>
        <mxCell id="C-vyLk0tnHw3VtMMgP7b-1" value="" style="edgeStyle=orthogonalEdgeStyle;endArrow=ERzeroToMany;startArrow=ERone;endFill=1;startFill=0;exitX=1.003;exitY=0.314;exitDx=0;exitDy=0;entryX=0;entryY=0.5;entryDx=0;entryDy=0;strokeWidth=2;strokeColor=#67AB9F;exitPerimeter=0;" parent="1" source="C-vyLk0tnHw3VtMMgP7b-24" target="p7Mw4wTtwR3t4Kbprkma-279" edge="1">
          <mxGeometry width="100" height="100" relative="1" as="geometry">
            <mxPoint x="-58" y="180" as="sourcePoint" />
            <mxPoint x="-49" y="90.00000000000023" as="targetPoint" />
            <Array as="points">
              <mxPoint x="-70" y="-311" />
              <mxPoint x="-70" y="-31" />
            </Array>
          </mxGeometry>
        </mxCell>
        <mxCell id="C-vyLk0tnHw3VtMMgP7b-13" value="Authorization_data" style="shape=table;startSize=30;container=1;collapsible=1;childLayout=tableLayout;fixedRows=1;rowLines=0;fontStyle=1;align=center;resizeLast=1;strokeWidth=2;strokeColor=#0A1F32;fillColor=#344756;fontColor=#D2D2D2;fontSize=14;" parent="1" vertex="1">
          <mxGeometry x="-399" y="6" width="299" height="150" as="geometry" />
        </mxCell>
        <mxCell id="C-vyLk0tnHw3VtMMgP7b-14" value="" style="shape=partialRectangle;collapsible=0;dropTarget=0;pointerEvents=0;fillColor=none;points=[[0,0.5],[1,0.5]];portConstraint=eastwest;top=0;left=0;right=0;bottom=1;fontColor=#0A1F32;" parent="C-vyLk0tnHw3VtMMgP7b-13" vertex="1">
          <mxGeometry y="30" width="299" height="30" as="geometry" />
        </mxCell>
        <mxCell id="C-vyLk0tnHw3VtMMgP7b-15" value="PK" style="shape=partialRectangle;overflow=hidden;connectable=0;fillColor=none;top=0;left=0;bottom=0;right=0;fontStyle=1;fontColor=#0A1F32;" parent="C-vyLk0tnHw3VtMMgP7b-14" vertex="1">
          <mxGeometry width="30" height="30" as="geometry">
            <mxRectangle width="30" height="30" as="alternateBounds" />
          </mxGeometry>
        </mxCell>
        <mxCell id="C-vyLk0tnHw3VtMMgP7b-16" value="authorization_data_idÂ int NOT NULL " style="shape=partialRectangle;overflow=hidden;connectable=0;fillColor=none;top=0;left=0;bottom=0;right=0;align=left;spacingLeft=6;fontStyle=1;strokeColor=#0A1F32;strokeWidth=2;fontColor=#0A1F32;" parent="C-vyLk0tnHw3VtMMgP7b-14" vertex="1">
          <mxGeometry x="30" width="269" height="30" as="geometry">
            <mxRectangle width="269" height="30" as="alternateBounds" />
          </mxGeometry>
        </mxCell>
        <mxCell id="C-vyLk0tnHw3VtMMgP7b-17" value="" style="shape=partialRectangle;collapsible=0;dropTarget=0;pointerEvents=0;fillColor=none;points=[[0,0.5],[1,0.5]];portConstraint=eastwest;top=0;left=0;right=0;bottom=0;strokeWidth=2;strokeColor=#0A1F32;fontColor=#0A1F32;" parent="C-vyLk0tnHw3VtMMgP7b-13" vertex="1">
          <mxGeometry y="60" width="299" height="30" as="geometry" />
        </mxCell>
        <mxCell id="C-vyLk0tnHw3VtMMgP7b-18" value="FK1" style="shape=partialRectangle;overflow=hidden;connectable=0;fillColor=none;top=0;left=0;bottom=0;right=0;fontColor=#0A1F32;" parent="C-vyLk0tnHw3VtMMgP7b-17" vertex="1">
          <mxGeometry width="30" height="30" as="geometry">
            <mxRectangle width="30" height="30" as="alternateBounds" />
          </mxGeometry>
        </mxCell>
        <mxCell id="C-vyLk0tnHw3VtMMgP7b-19" value="user_id int NOT NULL" style="shape=partialRectangle;overflow=hidden;connectable=0;fillColor=none;top=0;left=0;bottom=0;right=0;align=left;spacingLeft=6;fontColor=#0A1F32;" parent="C-vyLk0tnHw3VtMMgP7b-17" vertex="1">
          <mxGeometry x="30" width="269" height="30" as="geometry">
            <mxRectangle width="269" height="30" as="alternateBounds" />
          </mxGeometry>
        </mxCell>
        <mxCell id="C-vyLk0tnHw3VtMMgP7b-20" value="" style="shape=partialRectangle;collapsible=0;dropTarget=0;pointerEvents=0;fillColor=none;points=[[0,0.5],[1,0.5]];portConstraint=eastwest;top=0;left=0;right=0;bottom=0;fontColor=#0A1F32;" parent="C-vyLk0tnHw3VtMMgP7b-13" vertex="1">
          <mxGeometry y="90" width="299" height="30" as="geometry" />
        </mxCell>
        <mxCell id="C-vyLk0tnHw3VtMMgP7b-21" value="" style="shape=partialRectangle;overflow=hidden;connectable=0;fillColor=none;top=0;left=0;bottom=0;right=0;fontColor=#0A1F32;" parent="C-vyLk0tnHw3VtMMgP7b-20" vertex="1">
          <mxGeometry width="30" height="30" as="geometry">
            <mxRectangle width="30" height="30" as="alternateBounds" />
          </mxGeometry>
        </mxCell>
        <mxCell id="C-vyLk0tnHw3VtMMgP7b-22" value="user_email char(50) NOT NULL" style="shape=partialRectangle;overflow=hidden;connectable=0;fillColor=none;top=0;left=0;bottom=0;right=0;align=left;spacingLeft=6;fontColor=#0A1F32;" parent="C-vyLk0tnHw3VtMMgP7b-20" vertex="1">
          <mxGeometry x="30" width="269" height="30" as="geometry">
            <mxRectangle width="269" height="30" as="alternateBounds" />
          </mxGeometry>
        </mxCell>
        <mxCell id="p7Mw4wTtwR3t4Kbprkma-261" value="" style="endArrow=none;html=1;rounded=0;strokeWidth=2;strokeColor=#0A1F32;exitX=0;exitY=0.997;exitDx=0;exitDy=0;exitPerimeter=0;entryX=0.999;entryY=1.023;entryDx=0;entryDy=0;entryPerimeter=0;fontColor=#0A1F32;" parent="C-vyLk0tnHw3VtMMgP7b-13" source="C-vyLk0tnHw3VtMMgP7b-14" target="C-vyLk0tnHw3VtMMgP7b-14" edge="1">
          <mxGeometry width="50" height="50" relative="1" as="geometry">
            <mxPoint x="149" y="60" as="sourcePoint" />
            <mxPoint x="199" y="10" as="targetPoint" />
          </mxGeometry>
        </mxCell>
        <mxCell id="p7Mw4wTtwR3t4Kbprkma-265" value="" style="shape=tableRow;horizontal=0;startSize=0;swimlaneHead=0;swimlaneBody=0;fillColor=none;collapsible=0;dropTarget=0;points=[[0,0.5],[1,0.5]];portConstraint=eastwest;top=0;left=0;right=0;bottom=0;" parent="C-vyLk0tnHw3VtMMgP7b-13" vertex="1">
          <mxGeometry y="120" width="299" height="30" as="geometry" />
        </mxCell>
        <mxCell id="p7Mw4wTtwR3t4Kbprkma-266" value="" style="shape=partialRectangle;connectable=0;fillColor=none;top=0;left=0;bottom=0;right=0;editable=1;overflow=hidden;" parent="p7Mw4wTtwR3t4Kbprkma-265" vertex="1">
          <mxGeometry width="30" height="30" as="geometry">
            <mxRectangle width="30" height="30" as="alternateBounds" />
          </mxGeometry>
        </mxCell>
        <mxCell id="p7Mw4wTtwR3t4Kbprkma-267" value="encoded_user_password char(100) NOT NULL" style="shape=partialRectangle;connectable=0;fillColor=none;top=0;left=0;bottom=0;right=0;align=left;spacingLeft=6;overflow=hidden;fontColor=#0A1F32;" parent="p7Mw4wTtwR3t4Kbprkma-265" vertex="1">
          <mxGeometry x="30" width="269" height="30" as="geometry">
            <mxRectangle width="269" height="30" as="alternateBounds" />
          </mxGeometry>
        </mxCell>
        <mxCell id="C-vyLk0tnHw3VtMMgP7b-23" value="User" style="shape=table;startSize=30;container=1;collapsible=1;childLayout=tableLayout;fixedRows=1;rowLines=0;fontStyle=1;align=center;resizeLast=1;strokeWidth=2;strokeColor=#0A1F32;fillColor=#344756;fontColor=#D2D2D2;fontSize=14;" parent="1" vertex="1">
          <mxGeometry x="-390" y="-350" width="280" height="300" as="geometry" />
        </mxCell>
        <mxCell id="C-vyLk0tnHw3VtMMgP7b-24" value="" style="shape=partialRectangle;collapsible=0;dropTarget=0;pointerEvents=0;fillColor=none;points=[[0,0.5],[1,0.5]];portConstraint=eastwest;top=0;left=0;right=0;bottom=1;strokeWidth=2;strokeColor=#0A1F32;fontColor=#0A1F32;" parent="C-vyLk0tnHw3VtMMgP7b-23" vertex="1">
          <mxGeometry y="30" width="280" height="30" as="geometry" />
        </mxCell>
        <mxCell id="C-vyLk0tnHw3VtMMgP7b-25" value="PK" style="shape=partialRectangle;overflow=hidden;connectable=0;fillColor=none;top=0;left=0;bottom=0;right=0;fontStyle=1;strokeWidth=2;strokeColor=#0A1F32;fontColor=#0A1F32;" parent="C-vyLk0tnHw3VtMMgP7b-24" vertex="1">
          <mxGeometry width="30" height="30" as="geometry">
            <mxRectangle width="30" height="30" as="alternateBounds" />
          </mxGeometry>
        </mxCell>
        <mxCell id="C-vyLk0tnHw3VtMMgP7b-26" value="user_id int NOT NULL AUTO INCREMENT" style="shape=partialRectangle;overflow=hidden;connectable=0;fillColor=none;top=0;left=0;bottom=0;right=0;align=left;spacingLeft=6;fontStyle=1;strokeWidth=2;strokeColor=#0A1F32;fontColor=#0A1F32;" parent="C-vyLk0tnHw3VtMMgP7b-24" vertex="1">
          <mxGeometry x="30" width="250" height="30" as="geometry">
            <mxRectangle width="250" height="30" as="alternateBounds" />
          </mxGeometry>
        </mxCell>
        <mxCell id="C-vyLk0tnHw3VtMMgP7b-27" value="" style="shape=partialRectangle;collapsible=0;dropTarget=0;pointerEvents=0;fillColor=none;points=[[0,0.5],[1,0.5]];portConstraint=eastwest;top=0;left=0;right=0;bottom=0;strokeWidth=2;strokeColor=#0A1F32;fontColor=#0A1F32;" parent="C-vyLk0tnHw3VtMMgP7b-23" vertex="1">
          <mxGeometry y="60" width="280" height="30" as="geometry" />
        </mxCell>
        <mxCell id="C-vyLk0tnHw3VtMMgP7b-28" value="" style="shape=partialRectangle;overflow=hidden;connectable=0;fillColor=none;top=0;left=0;bottom=0;right=0;strokeWidth=2;strokeColor=#0A1F32;fontColor=#0A1F32;" parent="C-vyLk0tnHw3VtMMgP7b-27" vertex="1">
          <mxGeometry width="30" height="30" as="geometry">
            <mxRectangle width="30" height="30" as="alternateBounds" />
          </mxGeometry>
        </mxCell>
        <mxCell id="C-vyLk0tnHw3VtMMgP7b-29" value="first_name char(50) NOT NULL" style="shape=partialRectangle;overflow=hidden;connectable=0;fillColor=none;top=0;left=0;bottom=0;right=0;align=left;spacingLeft=6;strokeWidth=2;strokeColor=#0A1F32;fontColor=#0A1F32;" parent="C-vyLk0tnHw3VtMMgP7b-27" vertex="1">
          <mxGeometry x="30" width="250" height="30" as="geometry">
            <mxRectangle width="250" height="30" as="alternateBounds" />
          </mxGeometry>
        </mxCell>
        <mxCell id="0TbL1DXXGFVTLUaKbiiW-1" value="" style="shape=tableRow;horizontal=0;startSize=0;swimlaneHead=0;swimlaneBody=0;fillColor=none;collapsible=0;dropTarget=0;points=[[0,0.5],[1,0.5]];portConstraint=eastwest;top=0;left=0;right=0;bottom=0;" vertex="1" parent="C-vyLk0tnHw3VtMMgP7b-23">
          <mxGeometry y="90" width="280" height="30" as="geometry" />
        </mxCell>
        <mxCell id="0TbL1DXXGFVTLUaKbiiW-2" value="" style="shape=partialRectangle;connectable=0;fillColor=none;top=0;left=0;bottom=0;right=0;editable=1;overflow=hidden;" vertex="1" parent="0TbL1DXXGFVTLUaKbiiW-1">
          <mxGeometry width="30" height="30" as="geometry">
            <mxRectangle width="30" height="30" as="alternateBounds" />
          </mxGeometry>
        </mxCell>
        <mxCell id="0TbL1DXXGFVTLUaKbiiW-3" value="last_name char(50) NOT NULL" style="shape=partialRectangle;connectable=0;fillColor=none;top=0;left=0;bottom=0;right=0;align=left;spacingLeft=6;overflow=hidden;fontColor=#344756;" vertex="1" parent="0TbL1DXXGFVTLUaKbiiW-1">
          <mxGeometry x="30" width="250" height="30" as="geometry">
            <mxRectangle width="250" height="30" as="alternateBounds" />
          </mxGeometry>
        </mxCell>
        <mxCell id="0TbL1DXXGFVTLUaKbiiW-4" value="" style="shape=tableRow;horizontal=0;startSize=0;swimlaneHead=0;swimlaneBody=0;fillColor=none;collapsible=0;dropTarget=0;points=[[0,0.5],[1,0.5]];portConstraint=eastwest;top=0;left=0;right=0;bottom=0;" vertex="1" parent="C-vyLk0tnHw3VtMMgP7b-23">
          <mxGeometry y="120" width="280" height="30" as="geometry" />
        </mxCell>
        <mxCell id="0TbL1DXXGFVTLUaKbiiW-5" value="" style="shape=partialRectangle;connectable=0;fillColor=none;top=0;left=0;bottom=0;right=0;editable=1;overflow=hidden;" vertex="1" parent="0TbL1DXXGFVTLUaKbiiW-4">
          <mxGeometry width="30" height="30" as="geometry">
            <mxRectangle width="30" height="30" as="alternateBounds" />
          </mxGeometry>
        </mxCell>
        <mxCell id="0TbL1DXXGFVTLUaKbiiW-6" value="birthday dateÂ " style="shape=partialRectangle;connectable=0;fillColor=none;top=0;left=0;bottom=0;right=0;align=left;spacingLeft=6;overflow=hidden;fontColor=#344756;" vertex="1" parent="0TbL1DXXGFVTLUaKbiiW-4">
          <mxGeometry x="30" width="250" height="30" as="geometry">
            <mxRectangle width="250" height="30" as="alternateBounds" />
          </mxGeometry>
        </mxCell>
        <mxCell id="0TbL1DXXGFVTLUaKbiiW-7" value="" style="shape=tableRow;horizontal=0;startSize=0;swimlaneHead=0;swimlaneBody=0;fillColor=none;collapsible=0;dropTarget=0;points=[[0,0.5],[1,0.5]];portConstraint=eastwest;top=0;left=0;right=0;bottom=0;" vertex="1" parent="C-vyLk0tnHw3VtMMgP7b-23">
          <mxGeometry y="150" width="280" height="30" as="geometry" />
        </mxCell>
        <mxCell id="0TbL1DXXGFVTLUaKbiiW-8" value="" style="shape=partialRectangle;connectable=0;fillColor=none;top=0;left=0;bottom=0;right=0;editable=1;overflow=hidden;" vertex="1" parent="0TbL1DXXGFVTLUaKbiiW-7">
          <mxGeometry width="30" height="30" as="geometry">
            <mxRectangle width="30" height="30" as="alternateBounds" />
          </mxGeometry>
        </mxCell>
        <mxCell id="0TbL1DXXGFVTLUaKbiiW-9" value="user_age intÂ " style="shape=partialRectangle;connectable=0;fillColor=none;top=0;left=0;bottom=0;right=0;align=left;spacingLeft=6;overflow=hidden;fontColor=#344756;" vertex="1" parent="0TbL1DXXGFVTLUaKbiiW-7">
          <mxGeometry x="30" width="250" height="30" as="geometry">
            <mxRectangle width="250" height="30" as="alternateBounds" />
          </mxGeometry>
        </mxCell>
        <mxCell id="0TbL1DXXGFVTLUaKbiiW-27" value="" style="shape=tableRow;horizontal=0;startSize=0;swimlaneHead=0;swimlaneBody=0;fillColor=none;collapsible=0;dropTarget=0;points=[[0,0.5],[1,0.5]];portConstraint=eastwest;top=0;left=0;right=0;bottom=0;" vertex="1" parent="C-vyLk0tnHw3VtMMgP7b-23">
          <mxGeometry y="180" width="280" height="30" as="geometry" />
        </mxCell>
        <mxCell id="0TbL1DXXGFVTLUaKbiiW-28" value="" style="shape=partialRectangle;connectable=0;fillColor=none;top=0;left=0;bottom=0;right=0;editable=1;overflow=hidden;" vertex="1" parent="0TbL1DXXGFVTLUaKbiiW-27">
          <mxGeometry width="30" height="30" as="geometry">
            <mxRectangle width="30" height="30" as="alternateBounds" />
          </mxGeometry>
        </mxCell>
        <mxCell id="0TbL1DXXGFVTLUaKbiiW-29" value="registration_date date NOT NULL" style="shape=partialRectangle;connectable=0;fillColor=none;top=0;left=0;bottom=0;right=0;align=left;spacingLeft=6;overflow=hidden;fontColor=#344756;" vertex="1" parent="0TbL1DXXGFVTLUaKbiiW-27">
          <mxGeometry x="30" width="250" height="30" as="geometry">
            <mxRectangle width="250" height="30" as="alternateBounds" />
          </mxGeometry>
        </mxCell>
        <mxCell id="0TbL1DXXGFVTLUaKbiiW-17" value="" style="shape=tableRow;horizontal=0;startSize=0;swimlaneHead=0;swimlaneBody=0;fillColor=none;collapsible=0;dropTarget=0;points=[[0,0.5],[1,0.5]];portConstraint=eastwest;top=0;left=0;right=0;bottom=0;" vertex="1" parent="C-vyLk0tnHw3VtMMgP7b-23">
          <mxGeometry y="210" width="280" height="30" as="geometry" />
        </mxCell>
        <mxCell id="0TbL1DXXGFVTLUaKbiiW-18" value="" style="shape=partialRectangle;connectable=0;fillColor=none;top=0;left=0;bottom=0;right=0;editable=1;overflow=hidden;" vertex="1" parent="0TbL1DXXGFVTLUaKbiiW-17">
          <mxGeometry width="30" height="30" as="geometry">
            <mxRectangle width="30" height="30" as="alternateBounds" />
          </mxGeometry>
        </mxCell>
        <mxCell id="0TbL1DXXGFVTLUaKbiiW-19" value="country char(50)Â " style="shape=partialRectangle;connectable=0;fillColor=none;top=0;left=0;bottom=0;right=0;align=left;spacingLeft=6;overflow=hidden;fontColor=#344756;" vertex="1" parent="0TbL1DXXGFVTLUaKbiiW-17">
          <mxGeometry x="30" width="250" height="30" as="geometry">
            <mxRectangle width="250" height="30" as="alternateBounds" />
          </mxGeometry>
        </mxCell>
        <mxCell id="0TbL1DXXGFVTLUaKbiiW-24" value="" style="shape=tableRow;horizontal=0;startSize=0;swimlaneHead=0;swimlaneBody=0;fillColor=none;collapsible=0;dropTarget=0;points=[[0,0.5],[1,0.5]];portConstraint=eastwest;top=0;left=0;right=0;bottom=0;" vertex="1" parent="C-vyLk0tnHw3VtMMgP7b-23">
          <mxGeometry y="240" width="280" height="30" as="geometry" />
        </mxCell>
        <mxCell id="0TbL1DXXGFVTLUaKbiiW-25" value="" style="shape=partialRectangle;connectable=0;fillColor=none;top=0;left=0;bottom=0;right=0;editable=1;overflow=hidden;" vertex="1" parent="0TbL1DXXGFVTLUaKbiiW-24">
          <mxGeometry width="30" height="30" as="geometry">
            <mxRectangle width="30" height="30" as="alternateBounds" />
          </mxGeometry>
        </mxCell>
        <mxCell id="0TbL1DXXGFVTLUaKbiiW-26" value="city char(50)Â " style="shape=partialRectangle;connectable=0;fillColor=none;top=0;left=0;bottom=0;right=0;align=left;spacingLeft=6;overflow=hidden;fontColor=#344756;" vertex="1" parent="0TbL1DXXGFVTLUaKbiiW-24">
          <mxGeometry x="30" width="250" height="30" as="geometry">
            <mxRectangle width="250" height="30" as="alternateBounds" />
          </mxGeometry>
        </mxCell>
        <mxCell id="0TbL1DXXGFVTLUaKbiiW-20" value="" style="shape=tableRow;horizontal=0;startSize=0;swimlaneHead=0;swimlaneBody=0;fillColor=none;collapsible=0;dropTarget=0;points=[[0,0.5],[1,0.5]];portConstraint=eastwest;top=0;left=0;right=0;bottom=0;" vertex="1" parent="C-vyLk0tnHw3VtMMgP7b-23">
          <mxGeometry y="270" width="280" height="30" as="geometry" />
        </mxCell>
        <mxCell id="0TbL1DXXGFVTLUaKbiiW-21" value="" style="shape=partialRectangle;connectable=0;fillColor=none;top=0;left=0;bottom=0;right=0;editable=1;overflow=hidden;" vertex="1" parent="0TbL1DXXGFVTLUaKbiiW-20">
          <mxGeometry width="30" height="30" as="geometry">
            <mxRectangle width="30" height="30" as="alternateBounds" />
          </mxGeometry>
        </mxCell>
        <mxCell id="0TbL1DXXGFVTLUaKbiiW-22" value="district char(50)Â " style="shape=partialRectangle;connectable=0;fillColor=none;top=0;left=0;bottom=0;right=0;align=left;spacingLeft=6;overflow=hidden;fontColor=#344756;" vertex="1" parent="0TbL1DXXGFVTLUaKbiiW-20">
          <mxGeometry x="30" width="250" height="30" as="geometry">
            <mxRectangle width="250" height="30" as="alternateBounds" />
          </mxGeometry>
        </mxCell>
        <mxCell id="W1w_GPU8LvK_WI4qFMCy-83" value="" style="edgeStyle=orthogonalEdgeStyle;fontSize=12;html=1;endArrow=ERmandOne;startArrow=ERmandOne;rounded=0;entryX=0;entryY=0.5;entryDx=0;entryDy=0;strokeWidth=2;exitX=0.002;exitY=0.129;exitDx=0;exitDy=0;strokeColor=#FF4C2B;exitPerimeter=0;" parent="1" source="C-vyLk0tnHw3VtMMgP7b-24" target="C-vyLk0tnHw3VtMMgP7b-14" edge="1">
          <mxGeometry width="100" height="100" relative="1" as="geometry">
            <mxPoint x="-410" y="200" as="sourcePoint" />
            <mxPoint x="-220" y="193" as="targetPoint" />
            <Array as="points">
              <mxPoint x="-420" y="-316" />
              <mxPoint x="-420" y="50" />
              <mxPoint x="-399" y="50" />
            </Array>
          </mxGeometry>
        </mxCell>
        <mxCell id="W1w_GPU8LvK_WI4qFMCy-87" value="" style="shape=tableRow;horizontal=0;startSize=0;swimlaneHead=0;swimlaneBody=0;fillColor=none;collapsible=0;dropTarget=0;points=[[0,0.5],[1,0.5]];portConstraint=eastwest;top=0;left=0;right=0;bottom=0;strokeWidth=2;strokeColor=#0A1F32;fontColor=#0A1F32;" parent="1" vertex="1">
          <mxGeometry x="-391" y="-134" width="270" height="30" as="geometry" />
        </mxCell>
        <mxCell id="W1w_GPU8LvK_WI4qFMCy-90" value="" style="shape=tableRow;horizontal=0;startSize=0;swimlaneHead=0;swimlaneBody=0;fillColor=none;collapsible=0;dropTarget=0;points=[[0,0.5],[1,0.5]];portConstraint=eastwest;top=0;left=0;right=0;bottom=0;strokeWidth=2;strokeColor=#0A1F32;fontColor=#0A1F32;" parent="1" vertex="1">
          <mxGeometry x="-389" y="-99" width="270" height="30" as="geometry" />
        </mxCell>
        <mxCell id="W1w_GPU8LvK_WI4qFMCy-148" value="" style="edgeStyle=orthogonalEdgeStyle;fontSize=12;html=1;endArrow=ERmandOne;startArrow=ERmandOne;rounded=0;entryX=0.003;entryY=0.186;entryDx=0;entryDy=0;strokeColor=#99004D;strokeWidth=2;exitX=1.003;exitY=0.159;exitDx=0;exitDy=0;exitPerimeter=0;entryPerimeter=0;" parent="1" target="p7Mw4wTtwR3t4Kbprkma-303" edge="1" source="p7Mw4wTtwR3t4Kbprkma-185">
          <mxGeometry width="100" height="100" relative="1" as="geometry">
            <mxPoint x="260" y="-130" as="sourcePoint" />
            <mxPoint x="1210.5" y="176" as="targetPoint" />
            <Array as="points">
              <mxPoint x="310" y="-315" />
            </Array>
          </mxGeometry>
        </mxCell>
        <mxCell id="W1w_GPU8LvK_WI4qFMCy-243" value="" style="edgeStyle=orthogonalEdgeStyle;endArrow=ERzeroToMany;startArrow=ERone;endFill=1;startFill=0;entryX=0;entryY=0.5;entryDx=0;entryDy=0;strokeWidth=2;strokeColor=#9999FF;exitX=0;exitY=0.5;exitDx=0;exitDy=0;" parent="1" source="C-vyLk0tnHw3VtMMgP7b-24" target="p7Mw4wTtwR3t4Kbprkma-346" edge="1">
          <mxGeometry width="100" height="100" relative="1" as="geometry">
            <mxPoint y="560" as="sourcePoint" />
            <mxPoint x="356" y="204" as="targetPoint" />
            <Array as="points">
              <mxPoint x="-410" y="-305" />
              <mxPoint x="-410" y="-40" />
              <mxPoint x="-110" y="-40" />
              <mxPoint x="-110" y="-10" />
              <mxPoint x="-90" y="-10" />
              <mxPoint x="-90" y="140" />
              <mxPoint x="260" y="140" />
              <mxPoint x="260" y="115" />
            </Array>
          </mxGeometry>
        </mxCell>
        <mxCell id="W1w_GPU8LvK_WI4qFMCy-244" value="" style="endArrow=ERzeroToMany;startArrow=ERone;endFill=1;startFill=0;exitX=1.001;exitY=0.023;exitDx=0;exitDy=0;strokeWidth=2;entryX=1;entryY=0.5;entryDx=0;entryDy=0;strokeColor=#9999FF;edgeStyle=orthogonalEdgeStyle;exitPerimeter=0;" parent="1" source="p7Mw4wTtwR3t4Kbprkma-184" target="p7Mw4wTtwR3t4Kbprkma-353" edge="1">
          <mxGeometry width="100" height="100" relative="1" as="geometry">
            <mxPoint x="-60" y="378" as="sourcePoint" />
            <mxPoint x="655" y="204" as="targetPoint" />
            <Array as="points">
              <mxPoint x="280" y="-345" />
              <mxPoint x="280" y="50" />
              <mxPoint x="680" y="50" />
              <mxPoint x="680" y="145" />
            </Array>
          </mxGeometry>
        </mxCell>
        <mxCell id="p7Mw4wTtwR3t4Kbprkma-184" value="Community" style="shape=table;startSize=30;container=1;collapsible=1;childLayout=tableLayout;fixedRows=1;rowLines=0;fontStyle=1;align=center;resizeLast=1;strokeWidth=2;strokeColor=#0A1F32;fillColor=#344756;fontColor=#D2D2D2;fontSize=14;" parent="1" vertex="1">
          <mxGeometry x="-59" y="-350" width="319" height="210" as="geometry" />
        </mxCell>
        <mxCell id="p7Mw4wTtwR3t4Kbprkma-185" value="" style="shape=partialRectangle;collapsible=0;dropTarget=0;pointerEvents=0;fillColor=none;points=[[0,0.5],[1,0.5]];portConstraint=eastwest;top=0;left=0;right=0;bottom=1;strokeWidth=2;strokeColor=#0A1F32;fontColor=#0A1F32;" parent="p7Mw4wTtwR3t4Kbprkma-184" vertex="1">
          <mxGeometry y="30" width="319" height="30" as="geometry" />
        </mxCell>
        <mxCell id="p7Mw4wTtwR3t4Kbprkma-186" value="PK" style="shape=partialRectangle;overflow=hidden;connectable=0;fillColor=none;top=0;left=0;bottom=0;right=0;fontStyle=1;strokeWidth=2;strokeColor=#0A1F32;fontColor=#0A1F32;" parent="p7Mw4wTtwR3t4Kbprkma-185" vertex="1">
          <mxGeometry width="30" height="30" as="geometry">
            <mxRectangle width="30" height="30" as="alternateBounds" />
          </mxGeometry>
        </mxCell>
        <mxCell id="p7Mw4wTtwR3t4Kbprkma-187" value="community_id int NOT NULL AUTO INCREMENT" style="shape=partialRectangle;overflow=hidden;connectable=0;fillColor=none;top=0;left=0;bottom=0;right=0;align=left;spacingLeft=6;fontStyle=1;strokeWidth=2;strokeColor=#0A1F32;fontColor=#0A1F32;" parent="p7Mw4wTtwR3t4Kbprkma-185" vertex="1">
          <mxGeometry x="30" width="289" height="30" as="geometry">
            <mxRectangle width="289" height="30" as="alternateBounds" />
          </mxGeometry>
        </mxCell>
        <mxCell id="p7Mw4wTtwR3t4Kbprkma-188" value="" style="shape=partialRectangle;collapsible=0;dropTarget=0;pointerEvents=0;fillColor=none;points=[[0,0.5],[1,0.5]];portConstraint=eastwest;top=0;left=0;right=0;bottom=0;strokeWidth=2;strokeColor=#0A1F32;fontColor=#0A1F32;" parent="p7Mw4wTtwR3t4Kbprkma-184" vertex="1">
          <mxGeometry y="60" width="319" height="30" as="geometry" />
        </mxCell>
        <mxCell id="p7Mw4wTtwR3t4Kbprkma-189" value="" style="shape=partialRectangle;overflow=hidden;connectable=0;fillColor=none;top=0;left=0;bottom=0;right=0;strokeWidth=2;strokeColor=#0A1F32;fontColor=#0A1F32;" parent="p7Mw4wTtwR3t4Kbprkma-188" vertex="1">
          <mxGeometry width="30" height="30" as="geometry">
            <mxRectangle width="30" height="30" as="alternateBounds" />
          </mxGeometry>
        </mxCell>
        <mxCell id="p7Mw4wTtwR3t4Kbprkma-190" value="community_name char(240) NOT NULL" style="shape=partialRectangle;overflow=hidden;connectable=0;fillColor=none;top=0;left=0;bottom=0;right=0;align=left;spacingLeft=6;strokeWidth=2;strokeColor=#0A1F32;fontColor=#0A1F32;" parent="p7Mw4wTtwR3t4Kbprkma-188" vertex="1">
          <mxGeometry x="30" width="289" height="30" as="geometry">
            <mxRectangle width="289" height="30" as="alternateBounds" />
          </mxGeometry>
        </mxCell>
        <mxCell id="0TbL1DXXGFVTLUaKbiiW-35" value="" style="shape=tableRow;horizontal=0;startSize=0;swimlaneHead=0;swimlaneBody=0;fillColor=none;collapsible=0;dropTarget=0;points=[[0,0.5],[1,0.5]];portConstraint=eastwest;top=0;left=0;right=0;bottom=0;" vertex="1" parent="p7Mw4wTtwR3t4Kbprkma-184">
          <mxGeometry y="90" width="319" height="30" as="geometry" />
        </mxCell>
        <mxCell id="0TbL1DXXGFVTLUaKbiiW-36" value="" style="shape=partialRectangle;connectable=0;fillColor=none;top=0;left=0;bottom=0;right=0;editable=1;overflow=hidden;" vertex="1" parent="0TbL1DXXGFVTLUaKbiiW-35">
          <mxGeometry width="30" height="30" as="geometry">
            <mxRectangle width="30" height="30" as="alternateBounds" />
          </mxGeometry>
        </mxCell>
        <mxCell id="0TbL1DXXGFVTLUaKbiiW-37" value="community_description VARCHAR NOT NULL" style="shape=partialRectangle;connectable=0;fillColor=none;top=0;left=0;bottom=0;right=0;align=left;spacingLeft=6;overflow=hidden;fontColor=#344756;" vertex="1" parent="0TbL1DXXGFVTLUaKbiiW-35">
          <mxGeometry x="30" width="289" height="30" as="geometry">
            <mxRectangle width="289" height="30" as="alternateBounds" />
          </mxGeometry>
        </mxCell>
        <mxCell id="0TbL1DXXGFVTLUaKbiiW-41" value="" style="shape=tableRow;horizontal=0;startSize=0;swimlaneHead=0;swimlaneBody=0;fillColor=none;collapsible=0;dropTarget=0;points=[[0,0.5],[1,0.5]];portConstraint=eastwest;top=0;left=0;right=0;bottom=0;" vertex="1" parent="p7Mw4wTtwR3t4Kbprkma-184">
          <mxGeometry y="120" width="319" height="30" as="geometry" />
        </mxCell>
        <mxCell id="0TbL1DXXGFVTLUaKbiiW-42" value="" style="shape=partialRectangle;connectable=0;fillColor=none;top=0;left=0;bottom=0;right=0;editable=1;overflow=hidden;" vertex="1" parent="0TbL1DXXGFVTLUaKbiiW-41">
          <mxGeometry width="30" height="30" as="geometry">
            <mxRectangle width="30" height="30" as="alternateBounds" />
          </mxGeometry>
        </mxCell>
        <mxCell id="0TbL1DXXGFVTLUaKbiiW-43" value="country char(50)Â " style="shape=partialRectangle;connectable=0;fillColor=none;top=0;left=0;bottom=0;right=0;align=left;spacingLeft=6;overflow=hidden;fontColor=#344756;" vertex="1" parent="0TbL1DXXGFVTLUaKbiiW-41">
          <mxGeometry x="30" width="289" height="30" as="geometry">
            <mxRectangle width="289" height="30" as="alternateBounds" />
          </mxGeometry>
        </mxCell>
        <mxCell id="0TbL1DXXGFVTLUaKbiiW-38" value="" style="shape=tableRow;horizontal=0;startSize=0;swimlaneHead=0;swimlaneBody=0;fillColor=none;collapsible=0;dropTarget=0;points=[[0,0.5],[1,0.5]];portConstraint=eastwest;top=0;left=0;right=0;bottom=0;" vertex="1" parent="p7Mw4wTtwR3t4Kbprkma-184">
          <mxGeometry y="150" width="319" height="30" as="geometry" />
        </mxCell>
        <mxCell id="0TbL1DXXGFVTLUaKbiiW-39" value="" style="shape=partialRectangle;connectable=0;fillColor=none;top=0;left=0;bottom=0;right=0;editable=1;overflow=hidden;" vertex="1" parent="0TbL1DXXGFVTLUaKbiiW-38">
          <mxGeometry width="30" height="30" as="geometry">
            <mxRectangle width="30" height="30" as="alternateBounds" />
          </mxGeometry>
        </mxCell>
        <mxCell id="0TbL1DXXGFVTLUaKbiiW-40" value="city char(50)Â " style="shape=partialRectangle;connectable=0;fillColor=none;top=0;left=0;bottom=0;right=0;align=left;spacingLeft=6;overflow=hidden;fontColor=#344756;" vertex="1" parent="0TbL1DXXGFVTLUaKbiiW-38">
          <mxGeometry x="30" width="289" height="30" as="geometry">
            <mxRectangle width="289" height="30" as="alternateBounds" />
          </mxGeometry>
        </mxCell>
        <mxCell id="0TbL1DXXGFVTLUaKbiiW-44" value="" style="shape=tableRow;horizontal=0;startSize=0;swimlaneHead=0;swimlaneBody=0;fillColor=none;collapsible=0;dropTarget=0;points=[[0,0.5],[1,0.5]];portConstraint=eastwest;top=0;left=0;right=0;bottom=0;" vertex="1" parent="p7Mw4wTtwR3t4Kbprkma-184">
          <mxGeometry y="180" width="319" height="30" as="geometry" />
        </mxCell>
        <mxCell id="0TbL1DXXGFVTLUaKbiiW-45" value="" style="shape=partialRectangle;connectable=0;fillColor=none;top=0;left=0;bottom=0;right=0;editable=1;overflow=hidden;" vertex="1" parent="0TbL1DXXGFVTLUaKbiiW-44">
          <mxGeometry width="30" height="30" as="geometry">
            <mxRectangle width="30" height="30" as="alternateBounds" />
          </mxGeometry>
        </mxCell>
        <mxCell id="0TbL1DXXGFVTLUaKbiiW-46" value="district char(50)Â " style="shape=partialRectangle;connectable=0;fillColor=none;top=0;left=0;bottom=0;right=0;align=left;spacingLeft=6;overflow=hidden;fontColor=#344756;" vertex="1" parent="0TbL1DXXGFVTLUaKbiiW-44">
          <mxGeometry x="30" width="289" height="30" as="geometry">
            <mxRectangle width="289" height="30" as="alternateBounds" />
          </mxGeometry>
        </mxCell>
        <mxCell id="p7Mw4wTtwR3t4Kbprkma-275" value="Notification_options_Users" style="shape=table;startSize=30;container=1;collapsible=1;childLayout=tableLayout;fixedRows=1;rowLines=0;fontStyle=1;align=center;resizeLast=1;strokeWidth=2;strokeColor=#0A1F32;fillColor=#344756;fontColor=#D2D2D2;fontSize=14;" parent="1" vertex="1">
          <mxGeometry x="-49" y="-76" width="299" height="90" as="geometry" />
        </mxCell>
        <mxCell id="p7Mw4wTtwR3t4Kbprkma-279" value="" style="shape=partialRectangle;collapsible=0;dropTarget=0;pointerEvents=0;fillColor=none;points=[[0,0.5],[1,0.5]];portConstraint=eastwest;top=0;left=0;right=0;bottom=0;strokeWidth=2;strokeColor=#0A1F32;fontColor=#0A1F32;" parent="p7Mw4wTtwR3t4Kbprkma-275" vertex="1">
          <mxGeometry y="30" width="299" height="30" as="geometry" />
        </mxCell>
        <mxCell id="p7Mw4wTtwR3t4Kbprkma-280" value="PK,FK1" style="shape=partialRectangle;overflow=hidden;connectable=0;fillColor=none;top=0;left=0;bottom=0;right=0;fontColor=#0A1F32;" parent="p7Mw4wTtwR3t4Kbprkma-279" vertex="1">
          <mxGeometry width="49" height="30" as="geometry">
            <mxRectangle width="49" height="30" as="alternateBounds" />
          </mxGeometry>
        </mxCell>
        <mxCell id="p7Mw4wTtwR3t4Kbprkma-281" value="user_id int NOT NULL" style="shape=partialRectangle;overflow=hidden;connectable=0;fillColor=none;top=0;left=0;bottom=0;right=0;align=left;spacingLeft=6;fontColor=#0A1F32;" parent="p7Mw4wTtwR3t4Kbprkma-279" vertex="1">
          <mxGeometry x="49" width="250" height="30" as="geometry">
            <mxRectangle width="250" height="30" as="alternateBounds" />
          </mxGeometry>
        </mxCell>
        <mxCell id="p7Mw4wTtwR3t4Kbprkma-282" value="" style="shape=partialRectangle;collapsible=0;dropTarget=0;pointerEvents=0;fillColor=none;points=[[0,0.5],[1,0.5]];portConstraint=eastwest;top=0;left=0;right=0;bottom=0;fontColor=#0A1F32;" parent="p7Mw4wTtwR3t4Kbprkma-275" vertex="1">
          <mxGeometry y="60" width="299" height="30" as="geometry" />
        </mxCell>
        <mxCell id="p7Mw4wTtwR3t4Kbprkma-283" value="PK, FK2" style="shape=partialRectangle;overflow=hidden;connectable=0;fillColor=none;top=0;left=0;bottom=0;right=0;fontColor=#0A1F32;" parent="p7Mw4wTtwR3t4Kbprkma-282" vertex="1">
          <mxGeometry width="49" height="30" as="geometry">
            <mxRectangle width="49" height="30" as="alternateBounds" />
          </mxGeometry>
        </mxCell>
        <mxCell id="p7Mw4wTtwR3t4Kbprkma-284" value="option_id int NOT NULL" style="shape=partialRectangle;overflow=hidden;connectable=0;fillColor=none;top=0;left=0;bottom=0;right=0;align=left;spacingLeft=6;fontColor=#0A1F32;" parent="p7Mw4wTtwR3t4Kbprkma-282" vertex="1">
          <mxGeometry x="49" width="250" height="30" as="geometry">
            <mxRectangle width="250" height="30" as="alternateBounds" />
          </mxGeometry>
        </mxCell>
        <mxCell id="p7Mw4wTtwR3t4Kbprkma-285" value="" style="endArrow=none;html=1;rounded=0;strokeWidth=2;strokeColor=#0A1F32;exitX=0;exitY=0.997;exitDx=0;exitDy=0;exitPerimeter=0;entryX=0.999;entryY=1.023;entryDx=0;entryDy=0;entryPerimeter=0;fontColor=#0A1F32;" parent="p7Mw4wTtwR3t4Kbprkma-275" edge="1">
          <mxGeometry width="50" height="50" relative="1" as="geometry">
            <mxPoint y="59.91000000000008" as="sourcePoint" />
            <mxPoint x="298.7010000000005" y="60.69000000000028" as="targetPoint" />
          </mxGeometry>
        </mxCell>
        <mxCell id="p7Mw4wTtwR3t4Kbprkma-289" value="" style="edgeStyle=orthogonalEdgeStyle;endArrow=ERzeroToMany;startArrow=ERone;endFill=1;startFill=0;exitX=1;exitY=0.5;exitDx=0;exitDy=0;entryX=1;entryY=0.5;entryDx=0;entryDy=0;strokeWidth=2;strokeColor=#67AB9F;" parent="1" source="p7Mw4wTtwR3t4Kbprkma-291" target="p7Mw4wTtwR3t4Kbprkma-282" edge="1">
          <mxGeometry width="100" height="100" relative="1" as="geometry">
            <mxPoint x="249.75" y="270" as="sourcePoint" />
            <mxPoint x="250.00000000000045" y="90.00000000000023" as="targetPoint" />
            <Array as="points">
              <mxPoint x="270" y="83" />
              <mxPoint x="270" />
              <mxPoint x="250" />
            </Array>
          </mxGeometry>
        </mxCell>
        <mxCell id="p7Mw4wTtwR3t4Kbprkma-290" value="Notification_options" style="shape=table;startSize=30;container=1;collapsible=1;childLayout=tableLayout;fixedRows=1;rowLines=0;fontStyle=1;align=center;resizeLast=1;strokeWidth=2;strokeColor=#0A1F32;fillColor=#344756;fontColor=#D2D2D2;fontSize=14;" parent="1" vertex="1">
          <mxGeometry x="-49.25" y="38" width="299" height="90" as="geometry" />
        </mxCell>
        <mxCell id="p7Mw4wTtwR3t4Kbprkma-291" value="" style="shape=partialRectangle;collapsible=0;dropTarget=0;pointerEvents=0;fillColor=none;points=[[0,0.5],[1,0.5]];portConstraint=eastwest;top=0;left=0;right=0;bottom=1;fontColor=#0A1F32;" parent="p7Mw4wTtwR3t4Kbprkma-290" vertex="1">
          <mxGeometry y="30" width="299" height="30" as="geometry" />
        </mxCell>
        <mxCell id="p7Mw4wTtwR3t4Kbprkma-292" value="PK" style="shape=partialRectangle;overflow=hidden;connectable=0;fillColor=none;top=0;left=0;bottom=0;right=0;fontStyle=1;fontColor=#0A1F32;" parent="p7Mw4wTtwR3t4Kbprkma-291" vertex="1">
          <mxGeometry width="30" height="30" as="geometry">
            <mxRectangle width="30" height="30" as="alternateBounds" />
          </mxGeometry>
        </mxCell>
        <mxCell id="p7Mw4wTtwR3t4Kbprkma-293" value="option_idÂ int NOT NULL " style="shape=partialRectangle;overflow=hidden;connectable=0;fillColor=none;top=0;left=0;bottom=0;right=0;align=left;spacingLeft=6;fontStyle=1;strokeColor=#0A1F32;strokeWidth=2;fontColor=#0A1F32;" parent="p7Mw4wTtwR3t4Kbprkma-291" vertex="1">
          <mxGeometry x="30" width="269" height="30" as="geometry">
            <mxRectangle width="269" height="30" as="alternateBounds" />
          </mxGeometry>
        </mxCell>
        <mxCell id="p7Mw4wTtwR3t4Kbprkma-297" value="" style="shape=partialRectangle;collapsible=0;dropTarget=0;pointerEvents=0;fillColor=none;points=[[0,0.5],[1,0.5]];portConstraint=eastwest;top=0;left=0;right=0;bottom=0;fontColor=#0A1F32;" parent="p7Mw4wTtwR3t4Kbprkma-290" vertex="1">
          <mxGeometry y="60" width="299" height="30" as="geometry" />
        </mxCell>
        <mxCell id="p7Mw4wTtwR3t4Kbprkma-298" value="" style="shape=partialRectangle;overflow=hidden;connectable=0;fillColor=none;top=0;left=0;bottom=0;right=0;fontColor=#0A1F32;" parent="p7Mw4wTtwR3t4Kbprkma-297" vertex="1">
          <mxGeometry width="30" height="30" as="geometry">
            <mxRectangle width="30" height="30" as="alternateBounds" />
          </mxGeometry>
        </mxCell>
        <mxCell id="p7Mw4wTtwR3t4Kbprkma-299" value="option_name char(50) NOT NULL" style="shape=partialRectangle;overflow=hidden;connectable=0;fillColor=none;top=0;left=0;bottom=0;right=0;align=left;spacingLeft=6;fontColor=#0A1F32;" parent="p7Mw4wTtwR3t4Kbprkma-297" vertex="1">
          <mxGeometry x="30" width="269" height="30" as="geometry">
            <mxRectangle width="269" height="30" as="alternateBounds" />
          </mxGeometry>
        </mxCell>
        <mxCell id="p7Mw4wTtwR3t4Kbprkma-300" value="" style="endArrow=none;html=1;rounded=0;strokeWidth=2;strokeColor=#0A1F32;exitX=0;exitY=0.997;exitDx=0;exitDy=0;exitPerimeter=0;entryX=0.999;entryY=1.023;entryDx=0;entryDy=0;entryPerimeter=0;fontColor=#0A1F32;" parent="p7Mw4wTtwR3t4Kbprkma-290" source="p7Mw4wTtwR3t4Kbprkma-291" target="p7Mw4wTtwR3t4Kbprkma-291" edge="1">
          <mxGeometry width="50" height="50" relative="1" as="geometry">
            <mxPoint x="149" y="60" as="sourcePoint" />
            <mxPoint x="199" y="10" as="targetPoint" />
          </mxGeometry>
        </mxCell>
        <mxCell id="p7Mw4wTtwR3t4Kbprkma-302" value="Community_authorization_data" style="shape=table;startSize=30;container=1;collapsible=1;childLayout=tableLayout;fixedRows=1;rowLines=0;fontStyle=1;align=center;resizeLast=1;strokeWidth=2;strokeColor=#0A1F32;fillColor=#344756;fontColor=#D2D2D2;fontSize=14;" parent="1" vertex="1">
          <mxGeometry x="310" y="-350" width="330" height="150" as="geometry" />
        </mxCell>
        <mxCell id="p7Mw4wTtwR3t4Kbprkma-303" value="" style="shape=partialRectangle;collapsible=0;dropTarget=0;pointerEvents=0;fillColor=none;points=[[0,0.5],[1,0.5]];portConstraint=eastwest;top=0;left=0;right=0;bottom=1;fontColor=#0A1F32;" parent="p7Mw4wTtwR3t4Kbprkma-302" vertex="1">
          <mxGeometry y="30" width="330" height="30" as="geometry" />
        </mxCell>
        <mxCell id="p7Mw4wTtwR3t4Kbprkma-304" value="PK" style="shape=partialRectangle;overflow=hidden;connectable=0;fillColor=none;top=0;left=0;bottom=0;right=0;fontStyle=1;fontColor=#0A1F32;" parent="p7Mw4wTtwR3t4Kbprkma-303" vertex="1">
          <mxGeometry width="30" height="30" as="geometry">
            <mxRectangle width="30" height="30" as="alternateBounds" />
          </mxGeometry>
        </mxCell>
        <mxCell id="p7Mw4wTtwR3t4Kbprkma-305" value="community_authorization_data_idÂ int NOT NULL " style="shape=partialRectangle;overflow=hidden;connectable=0;fillColor=none;top=0;left=0;bottom=0;right=0;align=left;spacingLeft=6;fontStyle=1;strokeColor=#0A1F32;strokeWidth=2;fontColor=#0A1F32;" parent="p7Mw4wTtwR3t4Kbprkma-303" vertex="1">
          <mxGeometry x="30" width="300" height="30" as="geometry">
            <mxRectangle width="300" height="30" as="alternateBounds" />
          </mxGeometry>
        </mxCell>
        <mxCell id="p7Mw4wTtwR3t4Kbprkma-306" value="" style="shape=partialRectangle;collapsible=0;dropTarget=0;pointerEvents=0;fillColor=none;points=[[0,0.5],[1,0.5]];portConstraint=eastwest;top=0;left=0;right=0;bottom=0;strokeWidth=2;strokeColor=#0A1F32;fontColor=#0A1F32;" parent="p7Mw4wTtwR3t4Kbprkma-302" vertex="1">
          <mxGeometry y="60" width="330" height="30" as="geometry" />
        </mxCell>
        <mxCell id="p7Mw4wTtwR3t4Kbprkma-307" value="FK1" style="shape=partialRectangle;overflow=hidden;connectable=0;fillColor=none;top=0;left=0;bottom=0;right=0;fontColor=#0A1F32;" parent="p7Mw4wTtwR3t4Kbprkma-306" vertex="1">
          <mxGeometry width="30" height="30" as="geometry">
            <mxRectangle width="30" height="30" as="alternateBounds" />
          </mxGeometry>
        </mxCell>
        <mxCell id="p7Mw4wTtwR3t4Kbprkma-308" value="community_id int NOT NULL" style="shape=partialRectangle;overflow=hidden;connectable=0;fillColor=none;top=0;left=0;bottom=0;right=0;align=left;spacingLeft=6;fontColor=#0A1F32;" parent="p7Mw4wTtwR3t4Kbprkma-306" vertex="1">
          <mxGeometry x="30" width="300" height="30" as="geometry">
            <mxRectangle width="300" height="30" as="alternateBounds" />
          </mxGeometry>
        </mxCell>
        <mxCell id="p7Mw4wTtwR3t4Kbprkma-309" value="" style="shape=partialRectangle;collapsible=0;dropTarget=0;pointerEvents=0;fillColor=none;points=[[0,0.5],[1,0.5]];portConstraint=eastwest;top=0;left=0;right=0;bottom=0;fontColor=#0A1F32;" parent="p7Mw4wTtwR3t4Kbprkma-302" vertex="1">
          <mxGeometry y="90" width="330" height="30" as="geometry" />
        </mxCell>
        <mxCell id="p7Mw4wTtwR3t4Kbprkma-310" value="" style="shape=partialRectangle;overflow=hidden;connectable=0;fillColor=none;top=0;left=0;bottom=0;right=0;fontColor=#0A1F32;" parent="p7Mw4wTtwR3t4Kbprkma-309" vertex="1">
          <mxGeometry width="30" height="30" as="geometry">
            <mxRectangle width="30" height="30" as="alternateBounds" />
          </mxGeometry>
        </mxCell>
        <mxCell id="p7Mw4wTtwR3t4Kbprkma-311" value="community_email char(50) NOT NULL" style="shape=partialRectangle;overflow=hidden;connectable=0;fillColor=none;top=0;left=0;bottom=0;right=0;align=left;spacingLeft=6;fontColor=#0A1F32;" parent="p7Mw4wTtwR3t4Kbprkma-309" vertex="1">
          <mxGeometry x="30" width="300" height="30" as="geometry">
            <mxRectangle width="300" height="30" as="alternateBounds" />
          </mxGeometry>
        </mxCell>
        <mxCell id="p7Mw4wTtwR3t4Kbprkma-312" value="" style="endArrow=none;html=1;rounded=0;strokeWidth=2;strokeColor=#0A1F32;exitX=0;exitY=0.997;exitDx=0;exitDy=0;exitPerimeter=0;entryX=0.999;entryY=1.023;entryDx=0;entryDy=0;entryPerimeter=0;fontColor=#0A1F32;" parent="p7Mw4wTtwR3t4Kbprkma-302" source="p7Mw4wTtwR3t4Kbprkma-303" target="p7Mw4wTtwR3t4Kbprkma-303" edge="1">
          <mxGeometry width="50" height="50" relative="1" as="geometry">
            <mxPoint x="149" y="60" as="sourcePoint" />
            <mxPoint x="199" y="10" as="targetPoint" />
          </mxGeometry>
        </mxCell>
        <mxCell id="p7Mw4wTtwR3t4Kbprkma-313" value="" style="shape=tableRow;horizontal=0;startSize=0;swimlaneHead=0;swimlaneBody=0;fillColor=none;collapsible=0;dropTarget=0;points=[[0,0.5],[1,0.5]];portConstraint=eastwest;top=0;left=0;right=0;bottom=0;" parent="p7Mw4wTtwR3t4Kbprkma-302" vertex="1">
          <mxGeometry y="120" width="330" height="30" as="geometry" />
        </mxCell>
        <mxCell id="p7Mw4wTtwR3t4Kbprkma-314" value="" style="shape=partialRectangle;connectable=0;fillColor=none;top=0;left=0;bottom=0;right=0;editable=1;overflow=hidden;" parent="p7Mw4wTtwR3t4Kbprkma-313" vertex="1">
          <mxGeometry width="30" height="30" as="geometry">
            <mxRectangle width="30" height="30" as="alternateBounds" />
          </mxGeometry>
        </mxCell>
        <mxCell id="p7Mw4wTtwR3t4Kbprkma-315" value="community_encoded_password char(100) NOT NULL" style="shape=partialRectangle;connectable=0;fillColor=none;top=0;left=0;bottom=0;right=0;align=left;spacingLeft=6;overflow=hidden;fontColor=#0A1F32;" parent="p7Mw4wTtwR3t4Kbprkma-313" vertex="1">
          <mxGeometry x="30" width="300" height="30" as="geometry">
            <mxRectangle width="300" height="30" as="alternateBounds" />
          </mxGeometry>
        </mxCell>
        <mxCell id="p7Mw4wTtwR3t4Kbprkma-316" value="Monitored_emergency_Community" style="shape=table;startSize=30;container=1;collapsible=1;childLayout=tableLayout;fixedRows=1;rowLines=0;fontStyle=1;align=center;resizeLast=1;strokeWidth=2;strokeColor=#0A1F32;fillColor=#344756;fontColor=#D2D2D2;fontSize=14;" parent="1" vertex="1">
          <mxGeometry x="326.25" y="-171" width="299" height="90" as="geometry" />
        </mxCell>
        <mxCell id="p7Mw4wTtwR3t4Kbprkma-320" value="" style="shape=partialRectangle;collapsible=0;dropTarget=0;pointerEvents=0;fillColor=none;points=[[0,0.5],[1,0.5]];portConstraint=eastwest;top=0;left=0;right=0;bottom=0;strokeWidth=2;strokeColor=#0A1F32;fontColor=#0A1F32;" parent="p7Mw4wTtwR3t4Kbprkma-316" vertex="1">
          <mxGeometry y="30" width="299" height="30" as="geometry" />
        </mxCell>
        <mxCell id="p7Mw4wTtwR3t4Kbprkma-321" value="PK, FK1" style="shape=partialRectangle;overflow=hidden;connectable=0;fillColor=none;top=0;left=0;bottom=0;right=0;fontColor=#0A1F32;" parent="p7Mw4wTtwR3t4Kbprkma-320" vertex="1">
          <mxGeometry width="53.75" height="30" as="geometry">
            <mxRectangle width="53.75" height="30" as="alternateBounds" />
          </mxGeometry>
        </mxCell>
        <mxCell id="p7Mw4wTtwR3t4Kbprkma-322" value="community_id int NOT NULL" style="shape=partialRectangle;overflow=hidden;connectable=0;fillColor=none;top=0;left=0;bottom=0;right=0;align=left;spacingLeft=6;fontColor=#0A1F32;" parent="p7Mw4wTtwR3t4Kbprkma-320" vertex="1">
          <mxGeometry x="53.75" width="245.25" height="30" as="geometry">
            <mxRectangle width="245.25" height="30" as="alternateBounds" />
          </mxGeometry>
        </mxCell>
        <mxCell id="p7Mw4wTtwR3t4Kbprkma-323" value="" style="shape=partialRectangle;collapsible=0;dropTarget=0;pointerEvents=0;fillColor=none;points=[[0,0.5],[1,0.5]];portConstraint=eastwest;top=0;left=0;right=0;bottom=0;fontColor=#0A1F32;" parent="p7Mw4wTtwR3t4Kbprkma-316" vertex="1">
          <mxGeometry y="60" width="299" height="30" as="geometry" />
        </mxCell>
        <mxCell id="p7Mw4wTtwR3t4Kbprkma-324" value="PK, FK2" style="shape=partialRectangle;overflow=hidden;connectable=0;fillColor=none;top=0;left=0;bottom=0;right=0;fontColor=#0A1F32;" parent="p7Mw4wTtwR3t4Kbprkma-323" vertex="1">
          <mxGeometry width="53.75" height="30" as="geometry">
            <mxRectangle width="53.75" height="30" as="alternateBounds" />
          </mxGeometry>
        </mxCell>
        <mxCell id="p7Mw4wTtwR3t4Kbprkma-325" value="emergency_id int NOT NULL" style="shape=partialRectangle;overflow=hidden;connectable=0;fillColor=none;top=0;left=0;bottom=0;right=0;align=left;spacingLeft=6;fontColor=#0A1F32;" parent="p7Mw4wTtwR3t4Kbprkma-323" vertex="1">
          <mxGeometry x="53.75" width="245.25" height="30" as="geometry">
            <mxRectangle width="245.25" height="30" as="alternateBounds" />
          </mxGeometry>
        </mxCell>
        <mxCell id="p7Mw4wTtwR3t4Kbprkma-326" value="" style="endArrow=none;html=1;rounded=0;strokeWidth=2;strokeColor=#0A1F32;exitX=0;exitY=0.997;exitDx=0;exitDy=0;exitPerimeter=0;entryX=0.999;entryY=1.023;entryDx=0;entryDy=0;entryPerimeter=0;fontColor=#0A1F32;" parent="p7Mw4wTtwR3t4Kbprkma-316" edge="1">
          <mxGeometry width="50" height="50" relative="1" as="geometry">
            <mxPoint y="59.91000000000008" as="sourcePoint" />
            <mxPoint x="298.701" y="60.68999999999983" as="targetPoint" />
          </mxGeometry>
        </mxCell>
        <mxCell id="p7Mw4wTtwR3t4Kbprkma-327" value="Monitored_emergency" style="shape=table;startSize=30;container=1;collapsible=1;childLayout=tableLayout;fixedRows=1;rowLines=0;fontStyle=1;align=center;resizeLast=1;strokeWidth=2;strokeColor=#0A1F32;fillColor=#344756;fontColor=#D2D2D2;fontSize=14;" parent="1" vertex="1">
          <mxGeometry x="328" y="-53" width="299" height="90" as="geometry" />
        </mxCell>
        <mxCell id="p7Mw4wTtwR3t4Kbprkma-328" value="" style="shape=partialRectangle;collapsible=0;dropTarget=0;pointerEvents=0;fillColor=none;points=[[0,0.5],[1,0.5]];portConstraint=eastwest;top=0;left=0;right=0;bottom=1;fontColor=#0A1F32;" parent="p7Mw4wTtwR3t4Kbprkma-327" vertex="1">
          <mxGeometry y="30" width="299" height="30" as="geometry" />
        </mxCell>
        <mxCell id="p7Mw4wTtwR3t4Kbprkma-329" value="PK" style="shape=partialRectangle;overflow=hidden;connectable=0;fillColor=none;top=0;left=0;bottom=0;right=0;fontStyle=1;fontColor=#0A1F32;" parent="p7Mw4wTtwR3t4Kbprkma-328" vertex="1">
          <mxGeometry width="30" height="30" as="geometry">
            <mxRectangle width="30" height="30" as="alternateBounds" />
          </mxGeometry>
        </mxCell>
        <mxCell id="p7Mw4wTtwR3t4Kbprkma-330" value="emergency_id int NOT NULL " style="shape=partialRectangle;overflow=hidden;connectable=0;fillColor=none;top=0;left=0;bottom=0;right=0;align=left;spacingLeft=6;fontStyle=1;strokeColor=#0A1F32;strokeWidth=2;fontColor=#0A1F32;" parent="p7Mw4wTtwR3t4Kbprkma-328" vertex="1">
          <mxGeometry x="30" width="269" height="30" as="geometry">
            <mxRectangle width="269" height="30" as="alternateBounds" />
          </mxGeometry>
        </mxCell>
        <mxCell id="p7Mw4wTtwR3t4Kbprkma-334" value="" style="shape=partialRectangle;collapsible=0;dropTarget=0;pointerEvents=0;fillColor=none;points=[[0,0.5],[1,0.5]];portConstraint=eastwest;top=0;left=0;right=0;bottom=0;fontColor=#0A1F32;" parent="p7Mw4wTtwR3t4Kbprkma-327" vertex="1">
          <mxGeometry y="60" width="299" height="30" as="geometry" />
        </mxCell>
        <mxCell id="p7Mw4wTtwR3t4Kbprkma-335" value="" style="shape=partialRectangle;overflow=hidden;connectable=0;fillColor=none;top=0;left=0;bottom=0;right=0;fontColor=#0A1F32;" parent="p7Mw4wTtwR3t4Kbprkma-334" vertex="1">
          <mxGeometry width="30" height="30" as="geometry">
            <mxRectangle width="30" height="30" as="alternateBounds" />
          </mxGeometry>
        </mxCell>
        <mxCell id="p7Mw4wTtwR3t4Kbprkma-336" value="emergency_name char(50) NOT NULL" style="shape=partialRectangle;overflow=hidden;connectable=0;fillColor=none;top=0;left=0;bottom=0;right=0;align=left;spacingLeft=6;fontColor=#0A1F32;" parent="p7Mw4wTtwR3t4Kbprkma-334" vertex="1">
          <mxGeometry x="30" width="269" height="30" as="geometry">
            <mxRectangle width="269" height="30" as="alternateBounds" />
          </mxGeometry>
        </mxCell>
        <mxCell id="p7Mw4wTtwR3t4Kbprkma-337" value="" style="endArrow=none;html=1;rounded=0;strokeWidth=2;strokeColor=#0A1F32;exitX=0;exitY=0.997;exitDx=0;exitDy=0;exitPerimeter=0;entryX=0.999;entryY=1.023;entryDx=0;entryDy=0;entryPerimeter=0;fontColor=#0A1F32;" parent="p7Mw4wTtwR3t4Kbprkma-327" source="p7Mw4wTtwR3t4Kbprkma-328" target="p7Mw4wTtwR3t4Kbprkma-328" edge="1">
          <mxGeometry width="50" height="50" relative="1" as="geometry">
            <mxPoint x="149" y="60" as="sourcePoint" />
            <mxPoint x="199" y="10" as="targetPoint" />
          </mxGeometry>
        </mxCell>
        <mxCell id="p7Mw4wTtwR3t4Kbprkma-338" value="" style="edgeStyle=orthogonalEdgeStyle;endArrow=ERzeroToMany;startArrow=ERone;endFill=1;startFill=0;entryX=0;entryY=0.5;entryDx=0;entryDy=0;strokeWidth=2;strokeColor=#FF4C2B;exitX=1.003;exitY=0.752;exitDx=0;exitDy=0;exitPerimeter=0;" parent="1" source="p7Mw4wTtwR3t4Kbprkma-185" target="p7Mw4wTtwR3t4Kbprkma-320" edge="1">
          <mxGeometry width="100" height="100" relative="1" as="geometry">
            <mxPoint x="260" y="-100" as="sourcePoint" />
            <mxPoint x="199.52" y="45" as="targetPoint" />
            <Array as="points">
              <mxPoint x="300" y="-297" />
              <mxPoint x="300" y="-126" />
            </Array>
          </mxGeometry>
        </mxCell>
        <mxCell id="p7Mw4wTtwR3t4Kbprkma-339" value="" style="edgeStyle=orthogonalEdgeStyle;endArrow=ERzeroToMany;startArrow=ERone;endFill=1;startFill=0;entryX=1;entryY=0.5;entryDx=0;entryDy=0;strokeWidth=2;strokeColor=#FF4C2B;exitX=1;exitY=0.5;exitDx=0;exitDy=0;" parent="1" source="p7Mw4wTtwR3t4Kbprkma-328" target="p7Mw4wTtwR3t4Kbprkma-323" edge="1">
          <mxGeometry width="100" height="100" relative="1" as="geometry">
            <mxPoint x="601" y="-25" as="sourcePoint" />
            <mxPoint x="667" y="-80" as="targetPoint" />
            <Array as="points">
              <mxPoint x="650" y="-8" />
              <mxPoint x="650" y="-96" />
            </Array>
          </mxGeometry>
        </mxCell>
        <mxCell id="p7Mw4wTtwR3t4Kbprkma-343" value="&lt;font style=&quot;font-size: 19px;&quot; color=&quot;#d2d2d2&quot;&gt;&lt;b style=&quot;&quot;&gt;&lt;br&gt;&lt;/b&gt;&lt;/font&gt;" style="verticalLabelPosition=middle;verticalAlign=middle;html=1;shape=mxgraph.basic.banner;strokeColor=#344756;strokeWidth=2;fillColor=#FF4C2B;labelPosition=center;align=center;" parent="1" vertex="1">
          <mxGeometry x="-320" y="-440" width="890" height="50" as="geometry" />
        </mxCell>
        <mxCell id="p7Mw4wTtwR3t4Kbprkma-345" value="&lt;b style=&quot;font-size: 21px;&quot;&gt;ER-Ð´Ð¸Ð°Ð³ÑÐ°Ð¼Ð¼Ð° Ð´Ð»Ñ Ð¿ÑÐ¸Ð»Ð¾Ð¶ÐµÐ½Ð¸Ñ NEAR&lt;br style=&quot;font-size: 21px;&quot;&gt;&lt;/b&gt;" style="text;strokeColor=none;fillColor=none;html=1;fontSize=21;fontStyle=1;verticalAlign=middle;align=center;fontColor=#D2D2D2;" parent="1" vertex="1">
          <mxGeometry x="-95" y="-442" width="440" height="40" as="geometry" />
        </mxCell>
        <mxCell id="p7Mw4wTtwR3t4Kbprkma-346" value="Subscriber_subscribtion_list" style="shape=table;startSize=30;container=1;collapsible=1;childLayout=tableLayout;fixedRows=1;rowLines=0;fontStyle=1;align=center;resizeLast=1;strokeWidth=2;strokeColor=#0A1F32;fillColor=#344756;fontColor=#D2D2D2;fontSize=14;" parent="1" vertex="1">
          <mxGeometry x="356" y="70" width="299" height="90" as="geometry" />
        </mxCell>
        <mxCell id="p7Mw4wTtwR3t4Kbprkma-350" value="" style="shape=partialRectangle;collapsible=0;dropTarget=0;pointerEvents=0;fillColor=none;points=[[0,0.5],[1,0.5]];portConstraint=eastwest;top=0;left=0;right=0;bottom=0;strokeWidth=2;strokeColor=#0A1F32;fontColor=#0A1F32;" parent="p7Mw4wTtwR3t4Kbprkma-346" vertex="1">
          <mxGeometry y="30" width="299" height="30" as="geometry" />
        </mxCell>
        <mxCell id="p7Mw4wTtwR3t4Kbprkma-351" value="PK, FK1" style="shape=partialRectangle;overflow=hidden;connectable=0;fillColor=none;top=0;left=0;bottom=0;right=0;fontColor=#0A1F32;" parent="p7Mw4wTtwR3t4Kbprkma-350" vertex="1">
          <mxGeometry width="54" height="30" as="geometry">
            <mxRectangle width="54" height="30" as="alternateBounds" />
          </mxGeometry>
        </mxCell>
        <mxCell id="p7Mw4wTtwR3t4Kbprkma-352" value="user_idÂ int NOT NULL" style="shape=partialRectangle;overflow=hidden;connectable=0;fillColor=none;top=0;left=0;bottom=0;right=0;align=left;spacingLeft=6;fontColor=#0A1F32;" parent="p7Mw4wTtwR3t4Kbprkma-350" vertex="1">
          <mxGeometry x="54" width="245" height="30" as="geometry">
            <mxRectangle width="245" height="30" as="alternateBounds" />
          </mxGeometry>
        </mxCell>
        <mxCell id="p7Mw4wTtwR3t4Kbprkma-353" value="" style="shape=partialRectangle;collapsible=0;dropTarget=0;pointerEvents=0;fillColor=none;points=[[0,0.5],[1,0.5]];portConstraint=eastwest;top=0;left=0;right=0;bottom=0;fontColor=#0A1F32;" parent="p7Mw4wTtwR3t4Kbprkma-346" vertex="1">
          <mxGeometry y="60" width="299" height="30" as="geometry" />
        </mxCell>
        <mxCell id="p7Mw4wTtwR3t4Kbprkma-354" value="PK, FK2" style="shape=partialRectangle;overflow=hidden;connectable=0;fillColor=none;top=0;left=0;bottom=0;right=0;fontColor=#0A1F32;" parent="p7Mw4wTtwR3t4Kbprkma-353" vertex="1">
          <mxGeometry width="54" height="30" as="geometry">
            <mxRectangle width="54" height="30" as="alternateBounds" />
          </mxGeometry>
        </mxCell>
        <mxCell id="p7Mw4wTtwR3t4Kbprkma-355" value="communiti_id int NOT NULL" style="shape=partialRectangle;overflow=hidden;connectable=0;fillColor=none;top=0;left=0;bottom=0;right=0;align=left;spacingLeft=6;fontColor=#0A1F32;" parent="p7Mw4wTtwR3t4Kbprkma-353" vertex="1">
          <mxGeometry x="54" width="245" height="30" as="geometry">
            <mxRectangle width="245" height="30" as="alternateBounds" />
          </mxGeometry>
        </mxCell>
        <mxCell id="p7Mw4wTtwR3t4Kbprkma-357" value="Group_data_list" style="shape=table;startSize=30;container=1;collapsible=1;childLayout=tableLayout;fixedRows=1;rowLines=0;fontStyle=1;align=center;resizeLast=1;strokeWidth=2;strokeColor=#0A1F32;fillColor=#344756;fontColor=#D2D2D2;fontSize=14;" parent="1" vertex="1">
          <mxGeometry x="-409.25" y="188" width="299" height="90" as="geometry" />
        </mxCell>
        <mxCell id="p7Mw4wTtwR3t4Kbprkma-361" value="" style="shape=partialRectangle;collapsible=0;dropTarget=0;pointerEvents=0;fillColor=none;points=[[0,0.5],[1,0.5]];portConstraint=eastwest;top=0;left=0;right=0;bottom=0;strokeWidth=2;strokeColor=#0A1F32;fontColor=#0A1F32;" parent="p7Mw4wTtwR3t4Kbprkma-357" vertex="1">
          <mxGeometry y="30" width="299" height="30" as="geometry" />
        </mxCell>
        <mxCell id="p7Mw4wTtwR3t4Kbprkma-362" value="PK, FK1" style="shape=partialRectangle;overflow=hidden;connectable=0;fillColor=none;top=0;left=0;bottom=0;right=0;fontColor=#0A1F32;" parent="p7Mw4wTtwR3t4Kbprkma-361" vertex="1">
          <mxGeometry width="49.25" height="30" as="geometry">
            <mxRectangle width="49.25" height="30" as="alternateBounds" />
          </mxGeometry>
        </mxCell>
        <mxCell id="p7Mw4wTtwR3t4Kbprkma-363" value="user_id int NOT NULL" style="shape=partialRectangle;overflow=hidden;connectable=0;fillColor=none;top=0;left=0;bottom=0;right=0;align=left;spacingLeft=6;fontColor=#0A1F32;" parent="p7Mw4wTtwR3t4Kbprkma-361" vertex="1">
          <mxGeometry x="49.25" width="249.75" height="30" as="geometry">
            <mxRectangle width="249.75" height="30" as="alternateBounds" />
          </mxGeometry>
        </mxCell>
        <mxCell id="p7Mw4wTtwR3t4Kbprkma-364" value="" style="shape=partialRectangle;collapsible=0;dropTarget=0;pointerEvents=0;fillColor=none;points=[[0,0.5],[1,0.5]];portConstraint=eastwest;top=0;left=0;right=0;bottom=0;fontColor=#0A1F32;" parent="p7Mw4wTtwR3t4Kbprkma-357" vertex="1">
          <mxGeometry y="60" width="299" height="30" as="geometry" />
        </mxCell>
        <mxCell id="p7Mw4wTtwR3t4Kbprkma-365" value="PK, FK2" style="shape=partialRectangle;overflow=hidden;connectable=0;fillColor=none;top=0;left=0;bottom=0;right=0;fontColor=#0A1F32;" parent="p7Mw4wTtwR3t4Kbprkma-364" vertex="1">
          <mxGeometry width="49.25" height="30" as="geometry">
            <mxRectangle width="49.25" height="30" as="alternateBounds" />
          </mxGeometry>
        </mxCell>
        <mxCell id="p7Mw4wTtwR3t4Kbprkma-366" value="group_id int NOT NULL" style="shape=partialRectangle;overflow=hidden;connectable=0;fillColor=none;top=0;left=0;bottom=0;right=0;align=left;spacingLeft=6;fontColor=#0A1F32;" parent="p7Mw4wTtwR3t4Kbprkma-364" vertex="1">
          <mxGeometry x="49.25" width="249.75" height="30" as="geometry">
            <mxRectangle width="249.75" height="30" as="alternateBounds" />
          </mxGeometry>
        </mxCell>
        <mxCell id="p7Mw4wTtwR3t4Kbprkma-368" value="Group_info" style="shape=table;startSize=30;container=1;collapsible=1;childLayout=tableLayout;fixedRows=1;rowLines=0;fontStyle=1;align=center;resizeLast=1;strokeWidth=2;strokeColor=#0A1F32;fillColor=#344756;fontColor=#D2D2D2;fontSize=14;" parent="1" vertex="1">
          <mxGeometry x="-409.5" y="306" width="299" height="120" as="geometry" />
        </mxCell>
        <mxCell id="p7Mw4wTtwR3t4Kbprkma-369" value="" style="shape=partialRectangle;collapsible=0;dropTarget=0;pointerEvents=0;fillColor=none;points=[[0,0.5],[1,0.5]];portConstraint=eastwest;top=0;left=0;right=0;bottom=1;fontColor=#0A1F32;" parent="p7Mw4wTtwR3t4Kbprkma-368" vertex="1">
          <mxGeometry y="30" width="299" height="30" as="geometry" />
        </mxCell>
        <mxCell id="p7Mw4wTtwR3t4Kbprkma-370" value="PK" style="shape=partialRectangle;overflow=hidden;connectable=0;fillColor=none;top=0;left=0;bottom=0;right=0;fontStyle=1;fontColor=#0A1F32;" parent="p7Mw4wTtwR3t4Kbprkma-369" vertex="1">
          <mxGeometry width="30" height="30" as="geometry">
            <mxRectangle width="30" height="30" as="alternateBounds" />
          </mxGeometry>
        </mxCell>
        <mxCell id="p7Mw4wTtwR3t4Kbprkma-371" value="group_idÂ int NOT NULL " style="shape=partialRectangle;overflow=hidden;connectable=0;fillColor=none;top=0;left=0;bottom=0;right=0;align=left;spacingLeft=6;fontStyle=1;strokeColor=#0A1F32;strokeWidth=2;fontColor=#0A1F32;" parent="p7Mw4wTtwR3t4Kbprkma-369" vertex="1">
          <mxGeometry x="30" width="269" height="30" as="geometry">
            <mxRectangle width="269" height="30" as="alternateBounds" />
          </mxGeometry>
        </mxCell>
        <mxCell id="p7Mw4wTtwR3t4Kbprkma-375" value="" style="shape=partialRectangle;collapsible=0;dropTarget=0;pointerEvents=0;fillColor=none;points=[[0,0.5],[1,0.5]];portConstraint=eastwest;top=0;left=0;right=0;bottom=0;fontColor=#0A1F32;" parent="p7Mw4wTtwR3t4Kbprkma-368" vertex="1">
          <mxGeometry y="60" width="299" height="30" as="geometry" />
        </mxCell>
        <mxCell id="p7Mw4wTtwR3t4Kbprkma-376" value="" style="shape=partialRectangle;overflow=hidden;connectable=0;fillColor=none;top=0;left=0;bottom=0;right=0;fontColor=#0A1F32;" parent="p7Mw4wTtwR3t4Kbprkma-375" vertex="1">
          <mxGeometry width="30" height="30" as="geometry">
            <mxRectangle width="30" height="30" as="alternateBounds" />
          </mxGeometry>
        </mxCell>
        <mxCell id="p7Mw4wTtwR3t4Kbprkma-377" value="group_name char(50) NOT NULL" style="shape=partialRectangle;overflow=hidden;connectable=0;fillColor=none;top=0;left=0;bottom=0;right=0;align=left;spacingLeft=6;fontColor=#0A1F32;" parent="p7Mw4wTtwR3t4Kbprkma-375" vertex="1">
          <mxGeometry x="30" width="269" height="30" as="geometry">
            <mxRectangle width="269" height="30" as="alternateBounds" />
          </mxGeometry>
        </mxCell>
        <mxCell id="p7Mw4wTtwR3t4Kbprkma-378" value="" style="endArrow=none;html=1;rounded=0;strokeWidth=2;strokeColor=#0A1F32;exitX=0;exitY=0.997;exitDx=0;exitDy=0;exitPerimeter=0;entryX=0.999;entryY=1.023;entryDx=0;entryDy=0;entryPerimeter=0;fontColor=#0A1F32;" parent="p7Mw4wTtwR3t4Kbprkma-368" source="p7Mw4wTtwR3t4Kbprkma-369" target="p7Mw4wTtwR3t4Kbprkma-369" edge="1">
          <mxGeometry width="50" height="50" relative="1" as="geometry">
            <mxPoint x="149" y="60" as="sourcePoint" />
            <mxPoint x="199" y="10" as="targetPoint" />
          </mxGeometry>
        </mxCell>
        <mxCell id="p7Mw4wTtwR3t4Kbprkma-389" value="" style="shape=tableRow;horizontal=0;startSize=0;swimlaneHead=0;swimlaneBody=0;fillColor=none;collapsible=0;dropTarget=0;points=[[0,0.5],[1,0.5]];portConstraint=eastwest;top=0;left=0;right=0;bottom=0;" parent="p7Mw4wTtwR3t4Kbprkma-368" vertex="1">
          <mxGeometry y="90" width="299" height="30" as="geometry" />
        </mxCell>
        <mxCell id="p7Mw4wTtwR3t4Kbprkma-390" value="" style="shape=partialRectangle;connectable=0;fillColor=none;top=0;left=0;bottom=0;right=0;editable=1;overflow=hidden;" parent="p7Mw4wTtwR3t4Kbprkma-389" vertex="1">
          <mxGeometry width="30" height="30" as="geometry">
            <mxRectangle width="30" height="30" as="alternateBounds" />
          </mxGeometry>
        </mxCell>
        <mxCell id="p7Mw4wTtwR3t4Kbprkma-391" value="group_description VARCHAR NOT NULL" style="shape=partialRectangle;connectable=0;fillColor=none;top=0;left=0;bottom=0;right=0;align=left;spacingLeft=6;overflow=hidden;fontColor=#0A1F32;" parent="p7Mw4wTtwR3t4Kbprkma-389" vertex="1">
          <mxGeometry x="30" width="269" height="30" as="geometry">
            <mxRectangle width="269" height="30" as="alternateBounds" />
          </mxGeometry>
        </mxCell>
        <mxCell id="p7Mw4wTtwR3t4Kbprkma-379" value="" style="edgeStyle=orthogonalEdgeStyle;endArrow=ERzeroToMany;startArrow=ERone;endFill=1;startFill=0;entryX=1;entryY=0.5;entryDx=0;entryDy=0;strokeWidth=2;strokeColor=#FF4C2B;" parent="1" target="p7Mw4wTtwR3t4Kbprkma-361" edge="1">
          <mxGeometry width="100" height="100" relative="1" as="geometry">
            <mxPoint x="-110" y="-300" as="sourcePoint" />
            <mxPoint x="-110.25" y="365" as="targetPoint" />
            <Array as="points">
              <mxPoint x="-100" y="-300" />
              <mxPoint x="-100" y="-20" />
              <mxPoint x="-80" y="-20" />
              <mxPoint x="-80" y="233" />
            </Array>
          </mxGeometry>
        </mxCell>
        <mxCell id="p7Mw4wTtwR3t4Kbprkma-398" value="Group_members_list" style="shape=table;startSize=30;container=1;collapsible=1;childLayout=tableLayout;fixedRows=1;rowLines=0;fontStyle=1;align=center;resizeLast=1;strokeWidth=2;strokeColor=#0A1F32;fillColor=#344756;fontColor=#D2D2D2;fontSize=14;" parent="1" vertex="1">
          <mxGeometry x="-49.25000000000001" y="159" width="299" height="90" as="geometry" />
        </mxCell>
        <mxCell id="p7Mw4wTtwR3t4Kbprkma-402" value="" style="shape=partialRectangle;collapsible=0;dropTarget=0;pointerEvents=0;fillColor=none;points=[[0,0.5],[1,0.5]];portConstraint=eastwest;top=0;left=0;right=0;bottom=0;strokeWidth=2;strokeColor=#0A1F32;fontColor=#0A1F32;" parent="p7Mw4wTtwR3t4Kbprkma-398" vertex="1">
          <mxGeometry y="30" width="299" height="30" as="geometry" />
        </mxCell>
        <mxCell id="p7Mw4wTtwR3t4Kbprkma-403" value="PK, FK1" style="shape=partialRectangle;overflow=hidden;connectable=0;fillColor=none;top=0;left=0;bottom=0;right=0;fontColor=#0A1F32;" parent="p7Mw4wTtwR3t4Kbprkma-402" vertex="1">
          <mxGeometry width="57.36999999999989" height="30" as="geometry">
            <mxRectangle width="57.36999999999989" height="30" as="alternateBounds" />
          </mxGeometry>
        </mxCell>
        <mxCell id="p7Mw4wTtwR3t4Kbprkma-404" value="group_id int NOT NULL" style="shape=partialRectangle;overflow=hidden;connectable=0;fillColor=none;top=0;left=0;bottom=0;right=0;align=left;spacingLeft=6;fontColor=#0A1F32;" parent="p7Mw4wTtwR3t4Kbprkma-402" vertex="1">
          <mxGeometry x="57.36999999999989" width="241.6300000000001" height="30" as="geometry">
            <mxRectangle width="241.6300000000001" height="30" as="alternateBounds" />
          </mxGeometry>
        </mxCell>
        <mxCell id="p7Mw4wTtwR3t4Kbprkma-405" value="" style="shape=partialRectangle;collapsible=0;dropTarget=0;pointerEvents=0;fillColor=none;points=[[0,0.5],[1,0.5]];portConstraint=eastwest;top=0;left=0;right=0;bottom=0;fontColor=#0A1F32;" parent="p7Mw4wTtwR3t4Kbprkma-398" vertex="1">
          <mxGeometry y="60" width="299" height="30" as="geometry" />
        </mxCell>
        <mxCell id="p7Mw4wTtwR3t4Kbprkma-406" value="PK, FK2" style="shape=partialRectangle;overflow=hidden;connectable=0;fillColor=none;top=0;left=0;bottom=0;right=0;fontColor=#0A1F32;" parent="p7Mw4wTtwR3t4Kbprkma-405" vertex="1">
          <mxGeometry width="57.36999999999989" height="30" as="geometry">
            <mxRectangle width="57.36999999999989" height="30" as="alternateBounds" />
          </mxGeometry>
        </mxCell>
        <mxCell id="p7Mw4wTtwR3t4Kbprkma-407" value="user_id int NOT NULL" style="shape=partialRectangle;overflow=hidden;connectable=0;fillColor=none;top=0;left=0;bottom=0;right=0;align=left;spacingLeft=6;fontColor=#0A1F32;" parent="p7Mw4wTtwR3t4Kbprkma-405" vertex="1">
          <mxGeometry x="57.36999999999989" width="241.6300000000001" height="30" as="geometry">
            <mxRectangle width="241.6300000000001" height="30" as="alternateBounds" />
          </mxGeometry>
        </mxCell>
        <mxCell id="p7Mw4wTtwR3t4Kbprkma-408" value="" style="endArrow=none;html=1;rounded=0;strokeWidth=2;strokeColor=#0A1F32;exitX=0;exitY=0.997;exitDx=0;exitDy=0;exitPerimeter=0;entryX=0.999;entryY=1.023;entryDx=0;entryDy=0;entryPerimeter=0;fontColor=#0A1F32;" parent="p7Mw4wTtwR3t4Kbprkma-398" edge="1">
          <mxGeometry width="50" height="50" relative="1" as="geometry">
            <mxPoint x="1.1368683772161603e-13" y="59.909999999999854" as="sourcePoint" />
            <mxPoint x="298.70100000000014" y="60.690000000000055" as="targetPoint" />
          </mxGeometry>
        </mxCell>
        <mxCell id="p7Mw4wTtwR3t4Kbprkma-426" value="" style="edgeStyle=orthogonalEdgeStyle;endArrow=ERzeroToMany;startArrow=ERone;endFill=1;startFill=0;exitX=0;exitY=0.5;exitDx=0;exitDy=0;entryX=0;entryY=0.5;entryDx=0;entryDy=0;strokeWidth=2;strokeColor=#FF4C2B;" parent="1" source="p7Mw4wTtwR3t4Kbprkma-369" target="p7Mw4wTtwR3t4Kbprkma-364" edge="1">
          <mxGeometry width="100" height="100" relative="1" as="geometry">
            <mxPoint x="-100" y="70" as="sourcePoint" />
            <mxPoint x="-100" y="375" as="targetPoint" />
            <Array as="points">
              <mxPoint x="-430" y="351" />
              <mxPoint x="-430" y="263" />
            </Array>
          </mxGeometry>
        </mxCell>
        <mxCell id="p7Mw4wTtwR3t4Kbprkma-427" value="" style="edgeStyle=orthogonalEdgeStyle;endArrow=ERzeroToMany;startArrow=ERone;endFill=1;startFill=0;strokeWidth=2;strokeColor=#9999FF;exitX=1;exitY=0.5;exitDx=0;exitDy=0;entryX=0;entryY=0.5;entryDx=0;entryDy=0;" parent="1" source="p7Mw4wTtwR3t4Kbprkma-369" edge="1" target="p7Mw4wTtwR3t4Kbprkma-398">
          <mxGeometry width="100" height="100" relative="1" as="geometry">
            <mxPoint x="-110.5" y="605" as="sourcePoint" />
            <mxPoint x="-50" y="370" as="targetPoint" />
            <Array as="points">
              <mxPoint x="-70" y="351" />
              <mxPoint x="-70" y="204" />
            </Array>
          </mxGeometry>
        </mxCell>
        <mxCell id="p7Mw4wTtwR3t4Kbprkma-429" value="" style="edgeStyle=orthogonalEdgeStyle;fontSize=12;html=1;endArrow=ERzeroToMany;endFill=1;rounded=1;strokeColor=#99004D;strokeWidth=2;exitX=0.992;exitY=-0.013;exitDx=0;exitDy=0;entryX=1;entryY=0.5;entryDx=0;entryDy=0;exitPerimeter=0;" parent="1" source="C-vyLk0tnHw3VtMMgP7b-24" target="p7Mw4wTtwR3t4Kbprkma-405" edge="1">
          <mxGeometry width="100" height="100" relative="1" as="geometry">
            <mxPoint x="340" y="450" as="sourcePoint" />
            <mxPoint x="251.6300000000001" y="401" as="targetPoint" />
            <Array as="points">
              <mxPoint x="-90" y="-320" />
              <mxPoint x="-90" y="-100" />
              <mxPoint x="300" y="-100" />
              <mxPoint x="300" y="234" />
            </Array>
          </mxGeometry>
        </mxCell>
        <mxCell id="p7Mw4wTtwR3t4Kbprkma-459" value="User_Notification_template_list" style="shape=table;startSize=30;container=1;collapsible=1;childLayout=tableLayout;fixedRows=1;rowLines=0;fontStyle=1;align=center;resizeLast=1;strokeWidth=2;strokeColor=#0A1F32;fillColor=#344756;fontColor=#D2D2D2;fontSize=14;" parent="1" vertex="1">
          <mxGeometry x="-39" y="278" width="299" height="90" as="geometry" />
        </mxCell>
        <mxCell id="p7Mw4wTtwR3t4Kbprkma-463" value="" style="shape=partialRectangle;collapsible=0;dropTarget=0;pointerEvents=0;fillColor=none;points=[[0,0.5],[1,0.5]];portConstraint=eastwest;top=0;left=0;right=0;bottom=0;strokeWidth=2;strokeColor=#0A1F32;fontColor=#0A1F32;" parent="p7Mw4wTtwR3t4Kbprkma-459" vertex="1">
          <mxGeometry y="30" width="299" height="30" as="geometry" />
        </mxCell>
        <mxCell id="p7Mw4wTtwR3t4Kbprkma-464" value="PK, FK1" style="shape=partialRectangle;overflow=hidden;connectable=0;fillColor=none;top=0;left=0;bottom=0;right=0;fontColor=#0A1F32;" parent="p7Mw4wTtwR3t4Kbprkma-463" vertex="1">
          <mxGeometry width="56.5" height="30" as="geometry">
            <mxRectangle width="56.5" height="30" as="alternateBounds" />
          </mxGeometry>
        </mxCell>
        <mxCell id="p7Mw4wTtwR3t4Kbprkma-465" value="user_id int NOT NULL" style="shape=partialRectangle;overflow=hidden;connectable=0;fillColor=none;top=0;left=0;bottom=0;right=0;align=left;spacingLeft=6;fontColor=#0A1F32;" parent="p7Mw4wTtwR3t4Kbprkma-463" vertex="1">
          <mxGeometry x="56.5" width="242.5" height="30" as="geometry">
            <mxRectangle width="242.5" height="30" as="alternateBounds" />
          </mxGeometry>
        </mxCell>
        <mxCell id="p7Mw4wTtwR3t4Kbprkma-466" value="" style="shape=partialRectangle;collapsible=0;dropTarget=0;pointerEvents=0;fillColor=none;points=[[0,0.5],[1,0.5]];portConstraint=eastwest;top=0;left=0;right=0;bottom=0;fontColor=#0A1F32;" parent="p7Mw4wTtwR3t4Kbprkma-459" vertex="1">
          <mxGeometry y="60" width="299" height="30" as="geometry" />
        </mxCell>
        <mxCell id="p7Mw4wTtwR3t4Kbprkma-467" value="PK, FK2" style="shape=partialRectangle;overflow=hidden;connectable=0;fillColor=none;top=0;left=0;bottom=0;right=0;fontColor=#0A1F32;" parent="p7Mw4wTtwR3t4Kbprkma-466" vertex="1">
          <mxGeometry width="56.5" height="30" as="geometry">
            <mxRectangle width="56.5" height="30" as="alternateBounds" />
          </mxGeometry>
        </mxCell>
        <mxCell id="p7Mw4wTtwR3t4Kbprkma-468" value="template_idÂ int NOT NULL" style="shape=partialRectangle;overflow=hidden;connectable=0;fillColor=none;top=0;left=0;bottom=0;right=0;align=left;spacingLeft=6;fontColor=#0A1F32;" parent="p7Mw4wTtwR3t4Kbprkma-466" vertex="1">
          <mxGeometry x="56.5" width="242.5" height="30" as="geometry">
            <mxRectangle width="242.5" height="30" as="alternateBounds" />
          </mxGeometry>
        </mxCell>
        <mxCell id="p7Mw4wTtwR3t4Kbprkma-469" value="" style="endArrow=none;html=1;rounded=0;strokeWidth=2;strokeColor=#0A1F32;exitX=0;exitY=0.997;exitDx=0;exitDy=0;exitPerimeter=0;entryX=0.999;entryY=1.023;entryDx=0;entryDy=0;entryPerimeter=0;fontColor=#0A1F32;" parent="p7Mw4wTtwR3t4Kbprkma-459" edge="1">
          <mxGeometry width="50" height="50" relative="1" as="geometry">
            <mxPoint y="59.909999999999854" as="sourcePoint" />
            <mxPoint x="298.701" y="60.690000000000055" as="targetPoint" />
          </mxGeometry>
        </mxCell>
        <mxCell id="p7Mw4wTtwR3t4Kbprkma-481" value="Company_Notification_template_list" style="shape=table;startSize=30;container=1;collapsible=1;childLayout=tableLayout;fixedRows=1;rowLines=0;fontStyle=1;align=center;resizeLast=1;strokeWidth=2;strokeColor=#0A1F32;fillColor=#344756;fontColor=#D2D2D2;fontSize=14;" parent="1" vertex="1">
          <mxGeometry x="356" y="188" width="299" height="90" as="geometry" />
        </mxCell>
        <mxCell id="p7Mw4wTtwR3t4Kbprkma-485" value="" style="shape=partialRectangle;collapsible=0;dropTarget=0;pointerEvents=0;fillColor=none;points=[[0,0.5],[1,0.5]];portConstraint=eastwest;top=0;left=0;right=0;bottom=0;strokeWidth=2;strokeColor=#0A1F32;fontColor=#0A1F32;" parent="p7Mw4wTtwR3t4Kbprkma-481" vertex="1">
          <mxGeometry y="30" width="299" height="30" as="geometry" />
        </mxCell>
        <mxCell id="p7Mw4wTtwR3t4Kbprkma-486" value="PK, FK1" style="shape=partialRectangle;overflow=hidden;connectable=0;fillColor=none;top=0;left=0;bottom=0;right=0;fontColor=#0A1F32;" parent="p7Mw4wTtwR3t4Kbprkma-485" vertex="1">
          <mxGeometry width="55" height="30" as="geometry">
            <mxRectangle width="55" height="30" as="alternateBounds" />
          </mxGeometry>
        </mxCell>
        <mxCell id="p7Mw4wTtwR3t4Kbprkma-487" value="community_id int NOT NULL" style="shape=partialRectangle;overflow=hidden;connectable=0;fillColor=none;top=0;left=0;bottom=0;right=0;align=left;spacingLeft=6;fontColor=#0A1F32;" parent="p7Mw4wTtwR3t4Kbprkma-485" vertex="1">
          <mxGeometry x="55" width="244" height="30" as="geometry">
            <mxRectangle width="244" height="30" as="alternateBounds" />
          </mxGeometry>
        </mxCell>
        <mxCell id="p7Mw4wTtwR3t4Kbprkma-488" value="" style="shape=partialRectangle;collapsible=0;dropTarget=0;pointerEvents=0;fillColor=none;points=[[0,0.5],[1,0.5]];portConstraint=eastwest;top=0;left=0;right=0;bottom=0;fontColor=#0A1F32;" parent="p7Mw4wTtwR3t4Kbprkma-481" vertex="1">
          <mxGeometry y="60" width="299" height="30" as="geometry" />
        </mxCell>
        <mxCell id="p7Mw4wTtwR3t4Kbprkma-489" value="PK, FK2" style="shape=partialRectangle;overflow=hidden;connectable=0;fillColor=none;top=0;left=0;bottom=0;right=0;fontColor=#0A1F32;" parent="p7Mw4wTtwR3t4Kbprkma-488" vertex="1">
          <mxGeometry width="55" height="30" as="geometry">
            <mxRectangle width="55" height="30" as="alternateBounds" />
          </mxGeometry>
        </mxCell>
        <mxCell id="p7Mw4wTtwR3t4Kbprkma-490" value="template_idÂ int NOT NULL" style="shape=partialRectangle;overflow=hidden;connectable=0;fillColor=none;top=0;left=0;bottom=0;right=0;align=left;spacingLeft=6;fontColor=#0A1F32;" parent="p7Mw4wTtwR3t4Kbprkma-488" vertex="1">
          <mxGeometry x="55" width="244" height="30" as="geometry">
            <mxRectangle width="244" height="30" as="alternateBounds" />
          </mxGeometry>
        </mxCell>
        <mxCell id="p7Mw4wTtwR3t4Kbprkma-491" value="" style="endArrow=none;html=1;rounded=0;strokeWidth=2;strokeColor=#0A1F32;exitX=0;exitY=0.997;exitDx=0;exitDy=0;exitPerimeter=0;entryX=0.999;entryY=1.023;entryDx=0;entryDy=0;entryPerimeter=0;fontColor=#0A1F32;" parent="p7Mw4wTtwR3t4Kbprkma-481" edge="1">
          <mxGeometry width="50" height="50" relative="1" as="geometry">
            <mxPoint y="59.909999999999854" as="sourcePoint" />
            <mxPoint x="298.701" y="60.690000000000055" as="targetPoint" />
          </mxGeometry>
        </mxCell>
        <mxCell id="p7Mw4wTtwR3t4Kbprkma-492" value="Notification_template_transfer" style="shape=table;startSize=30;container=1;collapsible=1;childLayout=tableLayout;fixedRows=1;rowLines=0;fontStyle=1;align=center;resizeLast=1;strokeWidth=2;strokeColor=#0A1F32;fillColor=#344756;fontColor=#D2D2D2;fontSize=14;" parent="1" vertex="1">
          <mxGeometry x="337.5" y="307" width="299" height="120" as="geometry" />
        </mxCell>
        <mxCell id="p7Mw4wTtwR3t4Kbprkma-493" value="" style="shape=partialRectangle;collapsible=0;dropTarget=0;pointerEvents=0;fillColor=none;points=[[0,0.5],[1,0.5]];portConstraint=eastwest;top=0;left=0;right=0;bottom=1;fontColor=#0A1F32;" parent="p7Mw4wTtwR3t4Kbprkma-492" vertex="1">
          <mxGeometry y="30" width="299" height="30" as="geometry" />
        </mxCell>
        <mxCell id="p7Mw4wTtwR3t4Kbprkma-494" value="PK" style="shape=partialRectangle;overflow=hidden;connectable=0;fillColor=none;top=0;left=0;bottom=0;right=0;fontStyle=1;fontColor=#0A1F32;" parent="p7Mw4wTtwR3t4Kbprkma-493" vertex="1">
          <mxGeometry width="30" height="30" as="geometry">
            <mxRectangle width="30" height="30" as="alternateBounds" />
          </mxGeometry>
        </mxCell>
        <mxCell id="p7Mw4wTtwR3t4Kbprkma-495" value="template_idÂ int NOT NULL " style="shape=partialRectangle;overflow=hidden;connectable=0;fillColor=none;top=0;left=0;bottom=0;right=0;align=left;spacingLeft=6;fontStyle=1;strokeColor=#0A1F32;strokeWidth=2;fontColor=#0A1F32;" parent="p7Mw4wTtwR3t4Kbprkma-493" vertex="1">
          <mxGeometry x="30" width="269" height="30" as="geometry">
            <mxRectangle width="269" height="30" as="alternateBounds" />
          </mxGeometry>
        </mxCell>
        <mxCell id="p7Mw4wTtwR3t4Kbprkma-496" value="" style="shape=partialRectangle;collapsible=0;dropTarget=0;pointerEvents=0;fillColor=none;points=[[0,0.5],[1,0.5]];portConstraint=eastwest;top=0;left=0;right=0;bottom=0;strokeWidth=2;strokeColor=#0A1F32;fontColor=#0A1F32;" parent="p7Mw4wTtwR3t4Kbprkma-492" vertex="1">
          <mxGeometry y="60" width="299" height="30" as="geometry" />
        </mxCell>
        <mxCell id="p7Mw4wTtwR3t4Kbprkma-497" value="" style="shape=partialRectangle;overflow=hidden;connectable=0;fillColor=none;top=0;left=0;bottom=0;right=0;fontColor=#0A1F32;" parent="p7Mw4wTtwR3t4Kbprkma-496" vertex="1">
          <mxGeometry width="30" height="30" as="geometry">
            <mxRectangle width="30" height="30" as="alternateBounds" />
          </mxGeometry>
        </mxCell>
        <mxCell id="p7Mw4wTtwR3t4Kbprkma-498" value="template_status char(50) NOT NULL" style="shape=partialRectangle;overflow=hidden;connectable=0;fillColor=none;top=0;left=0;bottom=0;right=0;align=left;spacingLeft=6;fontColor=#0A1F32;" parent="p7Mw4wTtwR3t4Kbprkma-496" vertex="1">
          <mxGeometry x="30" width="269" height="30" as="geometry">
            <mxRectangle width="269" height="30" as="alternateBounds" />
          </mxGeometry>
        </mxCell>
        <mxCell id="p7Mw4wTtwR3t4Kbprkma-499" value="" style="shape=partialRectangle;collapsible=0;dropTarget=0;pointerEvents=0;fillColor=none;points=[[0,0.5],[1,0.5]];portConstraint=eastwest;top=0;left=0;right=0;bottom=0;fontColor=#0A1F32;" parent="p7Mw4wTtwR3t4Kbprkma-492" vertex="1">
          <mxGeometry y="90" width="299" height="30" as="geometry" />
        </mxCell>
        <mxCell id="p7Mw4wTtwR3t4Kbprkma-500" value="" style="shape=partialRectangle;overflow=hidden;connectable=0;fillColor=none;top=0;left=0;bottom=0;right=0;fontColor=#0A1F32;" parent="p7Mw4wTtwR3t4Kbprkma-499" vertex="1">
          <mxGeometry width="30" height="30" as="geometry">
            <mxRectangle width="30" height="30" as="alternateBounds" />
          </mxGeometry>
        </mxCell>
        <mxCell id="p7Mw4wTtwR3t4Kbprkma-501" value="template_link char(500) NOT NULL" style="shape=partialRectangle;overflow=hidden;connectable=0;fillColor=none;top=0;left=0;bottom=0;right=0;align=left;spacingLeft=6;fontColor=#0A1F32;" parent="p7Mw4wTtwR3t4Kbprkma-499" vertex="1">
          <mxGeometry x="30" width="269" height="30" as="geometry">
            <mxRectangle width="269" height="30" as="alternateBounds" />
          </mxGeometry>
        </mxCell>
        <mxCell id="p7Mw4wTtwR3t4Kbprkma-502" value="" style="endArrow=none;html=1;rounded=0;strokeWidth=2;strokeColor=#0A1F32;exitX=0;exitY=0.997;exitDx=0;exitDy=0;exitPerimeter=0;entryX=0.999;entryY=1.023;entryDx=0;entryDy=0;entryPerimeter=0;fontColor=#0A1F32;" parent="p7Mw4wTtwR3t4Kbprkma-492" source="p7Mw4wTtwR3t4Kbprkma-493" target="p7Mw4wTtwR3t4Kbprkma-493" edge="1">
          <mxGeometry width="50" height="50" relative="1" as="geometry">
            <mxPoint x="149" y="60" as="sourcePoint" />
            <mxPoint x="199" y="10" as="targetPoint" />
          </mxGeometry>
        </mxCell>
        <mxCell id="p7Mw4wTtwR3t4Kbprkma-516" value="" style="endArrow=ERzeroToMany;startArrow=ERone;endFill=1;startFill=0;exitX=0.999;exitY=0.071;exitDx=0;exitDy=0;strokeWidth=2;entryX=0;entryY=0.5;entryDx=0;entryDy=0;strokeColor=#67AB9F;edgeStyle=orthogonalEdgeStyle;exitPerimeter=0;" parent="1" source="p7Mw4wTtwR3t4Kbprkma-184" target="p7Mw4wTtwR3t4Kbprkma-485" edge="1">
          <mxGeometry width="100" height="100" relative="1" as="geometry">
            <mxPoint x="270" y="-50" as="sourcePoint" />
            <mxPoint x="345" y="401" as="targetPoint" />
            <Array as="points">
              <mxPoint x="290" y="-335" />
              <mxPoint x="290" y="-20" />
              <mxPoint x="320" y="-20" />
              <mxPoint x="320" y="233" />
            </Array>
          </mxGeometry>
        </mxCell>
        <mxCell id="p7Mw4wTtwR3t4Kbprkma-517" value="" style="edgeStyle=orthogonalEdgeStyle;fontSize=12;html=1;endArrow=ERzeroToMany;endFill=1;rounded=1;strokeColor=#FF4C2B;strokeWidth=2;exitX=1;exitY=0.5;exitDx=0;exitDy=0;entryX=1;entryY=0.5;entryDx=0;entryDy=0;" parent="1" source="p7Mw4wTtwR3t4Kbprkma-493" target="p7Mw4wTtwR3t4Kbprkma-488" edge="1">
          <mxGeometry width="100" height="100" relative="1" as="geometry">
            <mxPoint x="-100" y="-295" as="sourcePoint" />
            <mxPoint x="644" y="402" as="targetPoint" />
            <Array as="points">
              <mxPoint x="680" y="352" />
              <mxPoint x="680" y="263" />
            </Array>
          </mxGeometry>
        </mxCell>
        <mxCell id="p7Mw4wTtwR3t4Kbprkma-518" value="" style="fontSize=12;html=1;endArrow=ERzeroToMany;endFill=1;rounded=1;strokeColor=#FF4C2B;strokeWidth=2;exitX=0;exitY=0.5;exitDx=0;exitDy=0;entryX=1;entryY=0.5;entryDx=0;entryDy=0;edgeStyle=orthogonalEdgeStyle;" parent="1" source="p7Mw4wTtwR3t4Kbprkma-493" target="p7Mw4wTtwR3t4Kbprkma-466" edge="1">
          <mxGeometry width="100" height="100" relative="1" as="geometry">
            <mxPoint x="247.5" y="815" as="sourcePoint" />
            <mxPoint x="272.5" y="573" as="targetPoint" />
          </mxGeometry>
        </mxCell>
        <mxCell id="p7Mw4wTtwR3t4Kbprkma-520" value="" style="endArrow=ERzeroToMany;startArrow=ERone;endFill=1;startFill=0;exitX=0.001;exitY=0.933;exitDx=0;exitDy=0;strokeWidth=2;entryX=0;entryY=0.5;entryDx=0;entryDy=0;strokeColor=#99004D;edgeStyle=orthogonalEdgeStyle;exitPerimeter=0;" parent="1" source="C-vyLk0tnHw3VtMMgP7b-24" target="p7Mw4wTtwR3t4Kbprkma-463" edge="1">
          <mxGeometry width="100" height="100" relative="1" as="geometry">
            <mxPoint x="270" y="-10" as="sourcePoint" />
            <mxPoint x="-26.5" y="573" as="targetPoint" />
            <Array as="points">
              <mxPoint x="-440" y="-292" />
              <mxPoint x="-440" y="440" />
              <mxPoint x="-90" y="440" />
              <mxPoint x="-90" y="323" />
            </Array>
          </mxGeometry>
        </mxCell>
        <mxCell id="p7Mw4wTtwR3t4Kbprkma-522" value="&lt;font color=&quot;#0a1f32&quot; style=&quot;&quot; size=&quot;1&quot;&gt;&lt;b style=&quot;font-size: 18px; background-color: rgb(210, 210, 210);&quot;&gt;ÐÐ¸Ð·ÑÐ°Ð»Ð¸Ð·Ð¸ÑÐ¾Ð²Ð°Ð½Ð½Ð°Ñ Ð·Ð´ÐµÑÑ ER-Ð´Ð¸Ð°Ð³ÑÐ°Ð¼Ð¼Ð° ÑÐ²Ð»ÑÐµÑÑÑ ÑÑÐµÐ¼Ð¾Ð¹ ÑÑÑÑÐºÑÑÑÑ Ð´Ð°Ð½Ð½ÑÑ Ð¸ ÑÐ°Ð±Ð»Ð¸Ñ Ð² Ð±Ð°Ð·Ðµ Ð´Ð°Ð½Ð½ÑÑ PostgreSQL. Ð­ÑÐ¾Ñ Ð¼Ð°ÐºÐµÑ Ð¿Ð¾ÐºÐ°Ð·ÑÐ²Ð°ÐµÑ Ð¾ÑÐ½Ð¾Ð²Ñ Ð°ÑÑÐµÑÐµÐºÑÑÑÑ ÐÐ, Ð½Ð¾ Ð½Ðµ Ð² ÐºÐ¾ÐµÐ¼ ÑÐ»ÑÑÐ°Ðµ Ð½Ðµ Ð¾Ð³ÑÐ°Ð½Ð¸ÑÐ¸Ð²Ð°ÐµÑ ÐµÑ Ð´Ð°Ð»ÑÐ½ÐµÐ¹ÑÐµÐµ ÑÐ°Ð·Ð²Ð¸ÑÐ¸Ðµ Ð¸ ÑÐ°ÑÑÐ¸ÑÐµÐ½Ð¸Ðµ.&lt;/b&gt;&lt;/font&gt;" style="rounded=1;whiteSpace=wrap;html=1;strokeWidth=2;fillWeight=4;hachureGap=8;hachureAngle=45;fillColor=#1ba1e2;sketch=1;strokeColor=#FF4C2B;align=center;verticalAlign=middle;fontFamily=Helvetica;fontSize=12;fontColor=default;" parent="1" vertex="1">
          <mxGeometry x="-425" y="472" width="625" height="210" as="geometry" />
        </mxCell>
        <mxCell id="p7Mw4wTtwR3t4Kbprkma-524" value="&lt;font style=&quot;font-size: 16px;&quot;&gt;Ð¡Ð¾Ð´ÐµÑÐ¶Ð¸Ñ ÑÑÑÐ»ÐºÑ Ð½Ð° ÑÐ°Ð±Ð»Ð¾Ð½, Ð·Ð°Ð¿Ð¸ÑÐ°Ð½Ð½ÑÐ¹ Ð² MongoDB&lt;/font&gt;" style="label;whiteSpace=wrap;html=1;image=img/clipart/Gear_128x128.png;rounded=0;strokeColor=#FF4C2B;strokeWidth=2;align=center;verticalAlign=middle;fontFamily=Helvetica;fontSize=12;fontColor=default;fillColor=#344756;" parent="1" vertex="1">
          <mxGeometry x="332" y="471" width="308" height="120" as="geometry" />
        </mxCell>
        <mxCell id="p7Mw4wTtwR3t4Kbprkma-525" value="" style="endArrow=none;dashed=1;html=1;dashPattern=1 3;strokeWidth=2;rounded=0;fontFamily=Helvetica;fontSize=12;fontColor=default;entryX=0.493;entryY=1.118;entryDx=0;entryDy=0;entryPerimeter=0;exitX=0.5;exitY=0;exitDx=0;exitDy=0;strokeColor=#0A1F32;" parent="1" source="p7Mw4wTtwR3t4Kbprkma-524" target="p7Mw4wTtwR3t4Kbprkma-499" edge="1">
          <mxGeometry width="50" height="50" relative="1" as="geometry">
            <mxPoint x="400" y="630" as="sourcePoint" />
            <mxPoint x="450" y="580" as="targetPoint" />
          </mxGeometry>
        </mxCell>
      </root>
    </mxGraphModel>
  </diagram>
</mxfile>
